<svg xmlns="http://www.w3.org/2000/svg" xmlns:xlink="http://www.w3.org/1999/xlink" viewBox="0 0 77 52" fill="#fff" fill-rule="evenodd" stroke="#000" stroke-linecap="round" stroke-linejoin="round"><use xlink:href="#A" x=".5" y=".5"/><symbol id="A" overflow="visible"><g stroke="none" fill="#00aeef" fill-rule="nonzero"><path d="M29.43 16.149H5.685c-.765 0-1.395-.615-1.395-1.395 0-.765.615-1.395 1.395-1.395h23.4c1.83-.48 2.79-1.26 3.33-2.685.87-2.19.63-3.75-.69-5.31-1.17-1.38-3.12-1.98-4.785-1.53-1.935.54-3.27 2.475-3.75 5.445-.12.765-.855 1.29-1.575 1.17-.765-.12-1.29-.855-1.17-1.575.885-5.535 3.975-7.2 5.73-7.695 2.715-.765 5.79.21 7.665 2.415 1.995 2.37 2.37 4.965 1.17 8.115-1.185 3.045-3.66 3.99-5.415 4.425H29.4v.015h.03zm25.17 7.41H1.515c-.765 0-1.395-.615-1.395-1.395a1.38 1.38 0 0 1 1.395-1.395h52.8c3.18-.69 5.235-2.34 6.3-5.07 1.53-3.975 1.155-6.915-1.32-9.825-2.145-2.55-5.805-3.72-8.94-2.835-3.63 1.035-6.075 4.5-6.915 9.855-.12.765-.855 1.29-1.575 1.17-.765-.12-1.29-.855-1.17-1.575 1.38-8.73 6.18-11.325 8.91-12.09 4.2-1.185 8.94.33 11.82 3.735 3.12 3.69 3.69 7.695 1.77 12.615-1.425 3.675-4.275 5.97-8.46 6.825l-.135-.015zm12.765 18.69c-.63 0-1.275-.075-1.875-.255-1.755-.495-4.875-2.145-5.73-7.695a1.36 1.36 0 1 1 2.745-.405c.465 2.97 1.785 4.905 3.75 5.445 1.65.465 3.63-.165 4.785-1.53 1.35-1.575 1.53-3.12.69-5.31-.54-1.44-1.485-2.19-3.33-2.685H44.97c-.765 0-1.395-.615-1.395-1.395 0-.765.615-1.395 1.395-1.395h23.745l.165.045c3.69.93 4.86 2.955 5.415 4.425 1.23 3.15.87 5.73-1.17 8.115-1.425 1.665-3.615 2.64-5.76 2.64z"/><path d="M41.895 50.589a10.63 10.63 0 0 1-2.91-.39c-2.745-.765-7.545-3.36-8.91-12.09a1.36 1.36 0 0 1 1.17-1.575 1.36 1.36 0 0 1 1.575 1.17c.855 5.325 3.285 8.835 6.915 9.855 3.105.885 6.795-.3 8.955-2.85 2.445-2.91 2.85-5.82 1.32-9.825-1.065-2.73-3.105-4.395-6.3-5.07H1.395C.63 29.814 0 29.199 0 28.419c0-.765.615-1.395 1.395-1.395h42.57l.135.03c4.215.87 7.05 3.15 8.46 6.825 1.89 4.92 1.335 8.925-1.77 12.615-2.22 2.595-5.55 4.095-8.895 4.095z"/></g></symbol></svg>