<svg width="1180" height="70" viewBox="0 0 1180 70" fill="none" xmlns="http://www.w3.org/2000/svg">
<path d="M5.824 41.14C5.07733 41.14 4.39133 41.014 3.766 40.762C3.14067 40.51 2.59467 40.1553 2.128 39.698C1.67067 39.2313 1.316 38.6853 1.064 38.06C0.812 37.4347 0.686 36.7487 0.686 36.002C0.686 35.2553 0.812 34.5693 1.064 33.944C1.316 33.3187 1.67067 32.7773 2.128 32.32C2.59467 31.8533 3.14067 31.494 3.766 31.242C4.39133 30.99 5.07733 30.864 5.824 30.864C6.53333 30.864 7.196 30.99 7.812 31.242C8.43733 31.494 8.98333 31.8533 9.45 32.32C9.926 32.7773 10.2947 33.3187 10.556 33.944C10.8267 34.5693 10.962 35.2553 10.962 36.002C10.962 36.7487 10.836 37.4347 10.584 38.06C10.332 38.6853 9.97267 39.2313 9.506 39.698C9.04867 40.1553 8.50733 40.51 7.882 40.762C7.25667 41.014 6.57067 41.14 5.824 41.14ZM5.824 40.398C6.42133 40.398 6.98133 40.2907 7.504 40.076C8.02667 39.8613 8.48867 39.558 8.89 39.166C9.29133 38.7647 9.604 38.298 9.828 37.766C10.052 37.234 10.164 36.646 10.164 36.002C10.164 35.3953 10.0567 34.826 9.842 34.294C9.62733 33.762 9.324 33.2953 8.932 32.894C8.54933 32.4927 8.092 32.18 7.56 31.956C7.03733 31.7227 6.45867 31.606 5.824 31.606C4.984 31.606 4.23267 31.7973 3.57 32.18C2.91667 32.5533 2.40333 33.0713 2.03 33.734C1.65667 34.3873 1.47 35.1433 1.47 36.002C1.47 36.6087 1.57733 37.178 1.792 37.71C2.00667 38.242 2.30533 38.7087 2.688 39.11C3.08 39.5113 3.542 39.8287 4.074 40.062C4.606 40.286 5.18933 40.398 5.824 40.398ZM6.034 39.138C5.11 39.138 4.41933 38.8533 3.962 38.284C3.50467 37.7053 3.276 36.9447 3.276 36.002C3.276 35.3953 3.38333 34.8587 3.598 34.392C3.81267 33.916 4.13 33.5473 4.55 33.286C4.97 33.0153 5.48333 32.88 6.09 32.88C6.69667 32.88 7.27067 33.02 7.812 33.3L7.406 34.154C6.93933 33.9113 6.50533 33.79 6.104 33.79C5.55333 33.79 5.124 33.986 4.816 34.378C4.51733 34.77 4.368 35.3113 4.368 36.002C4.368 36.7113 4.49867 37.262 4.76 37.654C5.03067 38.0367 5.474 38.228 6.09 38.228C6.30467 38.228 6.54267 38.2 6.804 38.144C7.07467 38.0787 7.32667 37.9993 7.56 37.906V38.802C7.336 38.8953 7.10733 38.9747 6.874 39.04C6.64067 39.1053 6.36067 39.138 6.034 39.138ZM22.5652 41H15.9572V39.978L18.5752 37.332C19.0792 36.828 19.5038 36.38 19.8492 35.988C20.1945 35.596 20.4558 35.2133 20.6332 34.84C20.8105 34.4573 20.8992 34.042 20.8992 33.594C20.8992 33.0433 20.7358 32.628 20.4092 32.348C20.0825 32.0587 19.6578 31.914 19.1352 31.914C18.6498 31.914 18.2205 31.998 17.8472 32.166C17.4832 32.334 17.1098 32.5673 16.7272 32.866L16.0692 32.04C16.4612 31.7133 16.9092 31.438 17.4132 31.214C17.9265 30.9807 18.5005 30.864 19.1352 30.864C20.0685 30.864 20.8058 31.102 21.3472 31.578C21.8885 32.0447 22.1592 32.6933 22.1592 33.524C22.1592 34.0467 22.0518 34.5367 21.8372 34.994C21.6225 35.4513 21.3238 35.904 20.9412 36.352C20.5585 36.7907 20.1105 37.262 19.5972 37.766L17.5112 39.824V39.88H22.5652V41ZM30.6189 35.988C30.6189 37.0613 30.5069 37.9853 30.2829 38.76C30.0589 39.5253 29.7042 40.1133 29.2189 40.524C28.7335 40.9347 28.0895 41.14 27.2869 41.14C26.1575 41.14 25.3222 40.6873 24.7809 39.782C24.2489 38.8673 23.9829 37.6027 23.9829 35.988C23.9829 34.9053 24.0902 33.9813 24.3049 33.216C24.5289 32.4507 24.8835 31.8673 25.3689 31.466C25.8542 31.0553 26.4935 30.85 27.2869 30.85C28.4069 30.85 29.2422 31.3027 29.7929 32.208C30.3435 33.104 30.6189 34.364 30.6189 35.988ZM25.2149 35.988C25.2149 37.36 25.3689 38.3867 25.6769 39.068C25.9942 39.7493 26.5309 40.09 27.2869 40.09C28.0335 40.09 28.5655 39.754 28.8829 39.082C29.2095 38.4007 29.3729 37.3693 29.3729 35.988C29.3729 34.6253 29.2095 33.6033 28.8829 32.922C28.5655 32.2407 28.0335 31.9 27.2869 31.9C26.5309 31.9 25.9942 32.2407 25.6769 32.922C25.3689 33.6033 25.2149 34.6253 25.2149 35.988ZM38.5886 41H31.9806V39.978L34.5986 37.332C35.1026 36.828 35.5273 36.38 35.8726 35.988C36.2179 35.596 36.4793 35.2133 36.6566 34.84C36.8339 34.4573 36.9226 34.042 36.9226 33.594C36.9226 33.0433 36.7593 32.628 36.4326 32.348C36.1059 32.0587 35.6813 31.914 35.1586 31.914C34.6733 31.914 34.2439 31.998 33.8706 32.166C33.5066 32.334 33.1333 32.5673 32.7506 32.866L32.0926 32.04C32.4846 31.7133 32.9326 31.438 33.4366 31.214C33.9499 30.9807 34.5239 30.864 35.1586 30.864C36.0919 30.864 36.8293 31.102 37.3706 31.578C37.9119 32.0447 38.1826 32.6933 38.1826 33.524C38.1826 34.0467 38.0753 34.5367 37.8606 34.994C37.6459 35.4513 37.3473 35.904 36.9646 36.352C36.5819 36.7907 36.1339 37.262 35.6206 37.766L33.5346 39.824V39.88H38.5886V41ZM46.6423 35.988C46.6423 37.0613 46.5303 37.9853 46.3063 38.76C46.0823 39.5253 45.7276 40.1133 45.2423 40.524C44.757 40.9347 44.113 41.14 43.3103 41.14C42.181 41.14 41.3456 40.6873 40.8043 39.782C40.2723 38.8673 40.0063 37.6027 40.0063 35.988C40.0063 34.9053 40.1136 33.9813 40.3283 33.216C40.5523 32.4507 40.907 31.8673 41.3923 31.466C41.8776 31.0553 42.517 30.85 43.3103 30.85C44.4303 30.85 45.2656 31.3027 45.8163 32.208C46.367 33.104 46.6423 34.364 46.6423 35.988ZM41.2383 35.988C41.2383 37.36 41.3923 38.3867 41.7003 39.068C42.0176 39.7493 42.5543 40.09 43.3103 40.09C44.057 40.09 44.589 39.754 44.9063 39.082C45.233 38.4007 45.3963 37.3693 45.3963 35.988C45.3963 34.6253 45.233 33.6033 44.9063 32.922C44.589 32.2407 44.057 31.9 43.3103 31.9C42.5543 31.9 42.0176 32.2407 41.7003 32.922C41.3923 33.6033 41.2383 34.6253 41.2383 35.988ZM56.6108 31.97C55.5374 31.97 54.6928 32.3293 54.0768 33.048C53.4608 33.7667 53.1528 34.7513 53.1528 36.002C53.1528 37.2433 53.4374 38.228 54.0068 38.956C54.5854 39.6747 55.4488 40.034 56.5968 40.034C57.0354 40.034 57.4508 39.9967 57.8428 39.922C58.2348 39.8473 58.6174 39.754 58.9908 39.642V40.734C58.6174 40.874 58.2301 40.9767 57.8288 41.042C57.4368 41.1073 56.9654 41.14 56.4148 41.14C55.3974 41.14 54.5481 40.93 53.8668 40.51C53.1854 40.09 52.6721 39.4927 52.3268 38.718C51.9908 37.9433 51.8228 37.0333 51.8228 35.988C51.8228 34.98 52.0048 34.0933 52.3688 33.328C52.7421 32.5533 53.2881 31.9513 54.0068 31.522C54.7254 31.0833 55.5981 30.864 56.6248 30.864C57.6794 30.864 58.5988 31.06 59.3828 31.452L58.8787 32.516C58.5708 32.376 58.2254 32.25 57.8428 32.138C57.4694 32.026 57.0588 31.97 56.6108 31.97ZM62.2365 41H61.0045V30.36H62.2365V41ZM67.5118 33.356C68.1558 33.356 68.7065 33.496 69.1638 33.776C69.6305 34.056 69.9852 34.4527 70.2278 34.966C70.4798 35.47 70.6058 36.0627 70.6058 36.744V37.486H65.4678C65.4865 38.3353 65.7012 38.984 66.1118 39.432C66.5318 39.8707 67.1152 40.09 67.8618 40.09C68.3378 40.09 68.7578 40.048 69.1218 39.964C69.4952 39.8707 69.8778 39.74 70.2698 39.572V40.65C69.8872 40.818 69.5092 40.9393 69.1358 41.014C68.7625 41.098 68.3192 41.14 67.8058 41.14C67.0965 41.14 66.4665 40.9953 65.9158 40.706C65.3745 40.4167 64.9498 39.9873 64.6418 39.418C64.3432 38.8393 64.1938 38.1347 64.1938 37.304C64.1938 36.4827 64.3292 35.778 64.5998 35.19C64.8798 34.602 65.2672 34.1493 65.7618 33.832C66.2658 33.5147 66.8492 33.356 67.5118 33.356ZM67.4978 34.364C66.9098 34.364 66.4432 34.5553 66.0978 34.938C65.7618 35.3113 65.5612 35.834 65.4958 36.506H69.3178C69.3085 35.8713 69.1592 35.358 68.8698 34.966C68.5805 34.5647 68.1232 34.364 67.4978 34.364ZM76.0162 33.356C76.1562 33.356 76.3055 33.3653 76.4642 33.384C76.6322 33.3933 76.7768 33.412 76.8982 33.44L76.7442 34.574C76.6228 34.546 76.4875 34.5227 76.3382 34.504C76.1982 34.4853 76.0628 34.476 75.9322 34.476C75.5495 34.476 75.1902 34.5833 74.8542 34.798C74.5182 35.0033 74.2475 35.2973 74.0422 35.68C73.8462 36.0533 73.7482 36.492 73.7482 36.996V41H72.5162V33.496H73.5242L73.6642 34.868H73.7202C73.9628 34.4573 74.2755 34.1027 74.6582 33.804C75.0408 33.5053 75.4935 33.356 76.0162 33.356ZM79.5174 35.918C79.5174 36.0673 79.508 36.2633 79.4894 36.506C79.48 36.7487 79.4707 36.9587 79.4614 37.136H79.5174C79.5734 37.0613 79.6574 36.954 79.7694 36.814C79.8814 36.674 79.9934 36.534 80.1054 36.394C80.2267 36.2447 80.3294 36.1233 80.4134 36.03L82.8074 33.496H84.2494L81.2114 36.702L84.4594 41H82.9754L80.3714 37.5L79.5174 38.242V41H78.2994V30.36H79.5174V35.918ZM90.6639 38.928C90.6639 39.656 90.3932 40.2067 89.8519 40.58C89.3106 40.9533 88.5826 41.14 87.6679 41.14C87.1452 41.14 86.6926 41.098 86.3099 41.014C85.9366 40.93 85.6052 40.8133 85.3159 40.664V39.544C85.6146 39.6933 85.9739 39.8333 86.3939 39.964C86.8232 40.0853 87.2572 40.146 87.6959 40.146C88.3212 40.146 88.7739 40.048 89.0539 39.852C89.3339 39.6467 89.4739 39.376 89.4739 39.04C89.4739 38.8533 89.4226 38.6853 89.3199 38.536C89.2172 38.3867 89.0306 38.2373 88.7599 38.088C88.4986 37.9387 88.1206 37.7707 87.6259 37.584C87.1406 37.3973 86.7252 37.2107 86.3799 37.024C86.0346 36.8373 85.7686 36.6133 85.5819 36.352C85.3952 36.0907 85.3019 35.7547 85.3019 35.344C85.3019 34.7093 85.5586 34.2193 86.0719 33.874C86.5946 33.5287 87.2759 33.356 88.1159 33.356C88.5732 33.356 88.9979 33.4027 89.3899 33.496C89.7912 33.58 90.1646 33.7013 90.5099 33.86L90.0899 34.84C89.7726 34.7093 89.4412 34.5973 89.0959 34.504C88.7506 34.4107 88.3959 34.364 88.0319 34.364C87.5279 34.364 87.1406 34.448 86.8699 34.616C86.6086 34.7747 86.4779 34.994 86.4779 35.274C86.4779 35.4793 86.5386 35.6567 86.6599 35.806C86.7812 35.946 86.9819 36.086 87.2619 36.226C87.5512 36.3567 87.9339 36.5153 88.4099 36.702C88.8859 36.8793 89.2919 37.0613 89.6279 37.248C89.9639 37.4347 90.2206 37.6633 90.3979 37.934C90.5752 38.1953 90.6639 38.5267 90.6639 38.928ZM91.3011 33.496H92.6171L94.2411 37.766C94.3811 38.1393 94.5071 38.4987 94.6191 38.844C94.7311 39.18 94.8151 39.502 94.8711 39.81H94.9271C94.9831 39.5767 95.0718 39.2733 95.1931 38.9C95.3144 38.5173 95.4404 38.1347 95.5711 37.752L97.0971 33.496H98.4271L95.1931 42.036C94.9318 42.7453 94.5911 43.31 94.1711 43.73C93.7604 44.15 93.1911 44.36 92.4631 44.36C92.2391 44.36 92.0431 44.346 91.8751 44.318C91.7071 44.2993 91.5624 44.276 91.4411 44.248V43.268C91.5438 43.2867 91.6651 43.3053 91.8051 43.324C91.9544 43.3427 92.1084 43.352 92.2671 43.352C92.6964 43.352 93.0418 43.2307 93.3031 42.988C93.5738 42.7453 93.7838 42.4233 93.9331 42.022L94.3251 41.028L91.3011 33.496ZM100.551 39.53C100.43 40.0247 100.253 40.566 100.019 41.154C99.7953 41.7513 99.5713 42.302 99.3473 42.806H98.4373C98.5679 42.274 98.6986 41.6907 98.8293 41.056C98.9693 40.4213 99.0719 39.8613 99.1373 39.376H100.453L100.551 39.53ZM109.418 41H105.806V40.272L106.982 40.006V32.012L105.806 31.732V31.004H109.418V31.732L108.242 32.012V40.006L109.418 40.272V41ZM114.792 33.356C115.688 33.356 116.365 33.5753 116.822 34.014C117.28 34.4433 117.508 35.1433 117.508 36.114V41H116.29V36.198C116.29 34.994 115.73 34.392 114.61 34.392C113.78 34.392 113.206 34.6253 112.888 35.092C112.571 35.5587 112.412 36.2307 112.412 37.108V41H111.18V33.496H112.174L112.356 34.518H112.426C112.669 34.126 113.005 33.8367 113.434 33.65C113.864 33.454 114.316 33.356 114.792 33.356ZM122.845 41.14C122.182 41.14 121.589 41.0047 121.067 40.734C120.553 40.4633 120.147 40.0433 119.849 39.474C119.559 38.9047 119.415 38.1767 119.415 37.29C119.415 36.366 119.569 35.6147 119.877 35.036C120.185 34.4573 120.6 34.0327 121.123 33.762C121.655 33.4913 122.257 33.356 122.929 33.356C123.311 33.356 123.68 33.398 124.035 33.482C124.389 33.5567 124.679 33.65 124.903 33.762L124.525 34.784C124.301 34.7 124.039 34.6207 123.741 34.546C123.442 34.4713 123.162 34.434 122.901 34.434C121.426 34.434 120.689 35.3813 120.689 37.276C120.689 38.1813 120.866 38.8767 121.221 39.362C121.585 39.838 122.121 40.076 122.831 40.076C123.241 40.076 123.601 40.034 123.909 39.95C124.226 39.866 124.515 39.7633 124.777 39.642V40.734C124.525 40.8647 124.245 40.9627 123.937 41.028C123.638 41.1027 123.274 41.14 122.845 41.14ZM126.379 40.244C126.379 39.8987 126.463 39.656 126.631 39.516C126.799 39.376 127 39.306 127.233 39.306C127.476 39.306 127.681 39.376 127.849 39.516C128.026 39.656 128.115 39.8987 128.115 40.244C128.115 40.58 128.026 40.8227 127.849 40.972C127.681 41.1213 127.476 41.196 127.233 41.196C127 41.196 126.799 41.1213 126.631 40.972C126.463 40.8227 126.379 40.58 126.379 40.244ZM138.396 31.97C137.323 31.97 136.478 32.3293 135.862 33.048C135.246 33.7667 134.938 34.7513 134.938 36.002C134.938 37.2433 135.223 38.228 135.792 38.956C136.371 39.6747 137.234 40.034 138.382 40.034C138.821 40.034 139.236 39.9967 139.628 39.922C140.02 39.8473 140.403 39.754 140.776 39.642V40.734C140.403 40.874 140.015 40.9767 139.614 41.042C139.222 41.1073 138.751 41.14 138.2 41.14C137.183 41.14 136.333 40.93 135.652 40.51C134.971 40.09 134.457 39.4927 134.112 38.718C133.776 37.9433 133.608 37.0333 133.608 35.988C133.608 34.98 133.79 34.0933 134.154 33.328C134.527 32.5533 135.073 31.9513 135.792 31.522C136.511 31.0833 137.383 30.864 138.41 30.864C139.465 30.864 140.384 31.06 141.168 31.452L140.664 32.516C140.356 32.376 140.011 32.25 139.628 32.138C139.255 32.026 138.844 31.97 138.396 31.97ZM144.022 41H142.79V30.36H144.022V41ZM149.297 33.356C149.941 33.356 150.492 33.496 150.949 33.776C151.416 34.056 151.77 34.4527 152.013 34.966C152.265 35.47 152.391 36.0627 152.391 36.744V37.486H147.253C147.272 38.3353 147.486 38.984 147.897 39.432C148.317 39.8707 148.9 40.09 149.647 40.09C150.123 40.09 150.543 40.048 150.907 39.964C151.28 39.8707 151.663 39.74 152.055 39.572V40.65C151.672 40.818 151.294 40.9393 150.921 41.014C150.548 41.098 150.104 41.14 149.591 41.14C148.882 41.14 148.252 40.9953 147.701 40.706C147.16 40.4167 146.735 39.9873 146.427 39.418C146.128 38.8393 145.979 38.1347 145.979 37.304C145.979 36.4827 146.114 35.778 146.385 35.19C146.665 34.602 147.052 34.1493 147.547 33.832C148.051 33.5147 148.634 33.356 149.297 33.356ZM149.283 34.364C148.695 34.364 148.228 34.5553 147.883 34.938C147.547 35.3113 147.346 35.834 147.281 36.506H151.103C151.094 35.8713 150.944 35.358 150.655 34.966C150.366 34.5647 149.908 34.364 149.283 34.364ZM157.801 33.356C157.941 33.356 158.091 33.3653 158.249 33.384C158.417 33.3933 158.562 33.412 158.683 33.44L158.529 34.574C158.408 34.546 158.273 34.5227 158.123 34.504C157.983 34.4853 157.848 34.476 157.717 34.476C157.335 34.476 156.975 34.5833 156.639 34.798C156.303 35.0033 156.033 35.2973 155.827 35.68C155.631 36.0533 155.533 36.492 155.533 36.996V41H154.301V33.496H155.309L155.449 34.868H155.505C155.748 34.4573 156.061 34.1027 156.443 33.804C156.826 33.5053 157.279 33.356 157.801 33.356ZM161.303 35.918C161.303 36.0673 161.293 36.2633 161.275 36.506C161.265 36.7487 161.256 36.9587 161.247 37.136H161.303C161.359 37.0613 161.443 36.954 161.555 36.814C161.667 36.674 161.779 36.534 161.891 36.394C162.012 36.2447 162.115 36.1233 162.199 36.03L164.593 33.496H166.035L162.997 36.702L166.245 41H164.761L162.157 37.5L161.303 38.242V41H160.085V30.36H161.303V35.918ZM172.449 38.928C172.449 39.656 172.178 40.2067 171.637 40.58C171.096 40.9533 170.368 41.14 169.453 41.14C168.93 41.14 168.478 41.098 168.095 41.014C167.722 40.93 167.39 40.8133 167.101 40.664V39.544C167.4 39.6933 167.759 39.8333 168.179 39.964C168.608 40.0853 169.042 40.146 169.481 40.146C170.106 40.146 170.559 40.048 170.839 39.852C171.119 39.6467 171.259 39.376 171.259 39.04C171.259 38.8533 171.208 38.6853 171.105 38.536C171.002 38.3867 170.816 38.2373 170.545 38.088C170.284 37.9387 169.906 37.7707 169.411 37.584C168.926 37.3973 168.51 37.2107 168.165 37.024C167.82 36.8373 167.554 36.6133 167.367 36.352C167.18 36.0907 167.087 35.7547 167.087 35.344C167.087 34.7093 167.344 34.2193 167.857 33.874C168.38 33.5287 169.061 33.356 169.901 33.356C170.358 33.356 170.783 33.4027 171.175 33.496C171.576 33.58 171.95 33.7013 172.295 33.86L171.875 34.84C171.558 34.7093 171.226 34.5973 170.881 34.504C170.536 34.4107 170.181 34.364 169.817 34.364C169.313 34.364 168.926 34.448 168.655 34.616C168.394 34.7747 168.263 34.994 168.263 35.274C168.263 35.4793 168.324 35.6567 168.445 35.806C168.566 35.946 168.767 36.086 169.047 36.226C169.336 36.3567 169.719 36.5153 170.195 36.702C170.671 36.8793 171.077 37.0613 171.413 37.248C171.749 37.4347 172.006 37.6633 172.183 37.934C172.36 38.1953 172.449 38.5267 172.449 38.928ZM173.086 33.496H174.402L176.026 37.766C176.166 38.1393 176.292 38.4987 176.404 38.844C176.516 39.18 176.6 39.502 176.656 39.81H176.712C176.768 39.5767 176.857 39.2733 176.978 38.9C177.1 38.5173 177.226 38.1347 177.356 37.752L178.882 33.496H180.212L176.978 42.036C176.717 42.7453 176.376 43.31 175.956 43.73C175.546 44.15 174.976 44.36 174.248 44.36C174.024 44.36 173.828 44.346 173.66 44.318C173.492 44.2993 173.348 44.276 173.226 44.248V43.268C173.329 43.2867 173.45 43.3053 173.59 43.324C173.74 43.3427 173.894 43.352 174.052 43.352C174.482 43.352 174.827 43.2307 175.088 42.988C175.359 42.7453 175.569 42.4233 175.718 42.022L176.11 41.028L173.086 33.496ZM185.666 30.682C185.852 30.682 186.016 30.7473 186.156 30.878C186.305 30.9993 186.38 31.1953 186.38 31.466C186.38 31.7273 186.305 31.9233 186.156 32.054C186.016 32.1847 185.852 32.25 185.666 32.25C185.46 32.25 185.288 32.1847 185.148 32.054C185.008 31.9233 184.938 31.7273 184.938 31.466C184.938 31.1953 185.008 30.9993 185.148 30.878C185.288 30.7473 185.46 30.682 185.666 30.682ZM186.268 33.496V41H185.036V33.496H186.268ZM193.531 38.928C193.531 39.656 193.26 40.2067 192.719 40.58C192.178 40.9533 191.45 41.14 190.535 41.14C190.012 41.14 189.56 41.098 189.177 41.014C188.804 40.93 188.472 40.8133 188.183 40.664V39.544C188.482 39.6933 188.841 39.8333 189.261 39.964C189.69 40.0853 190.124 40.146 190.563 40.146C191.188 40.146 191.641 40.048 191.921 39.852C192.201 39.6467 192.341 39.376 192.341 39.04C192.341 38.8533 192.29 38.6853 192.187 38.536C192.084 38.3867 191.898 38.2373 191.627 38.088C191.366 37.9387 190.988 37.7707 190.493 37.584C190.008 37.3973 189.592 37.2107 189.247 37.024C188.902 36.8373 188.636 36.6133 188.449 36.352C188.262 36.0907 188.169 35.7547 188.169 35.344C188.169 34.7093 188.426 34.2193 188.939 33.874C189.462 33.5287 190.143 33.356 190.983 33.356C191.44 33.356 191.865 33.4027 192.257 33.496C192.658 33.58 193.032 33.7013 193.377 33.86L192.957 34.84C192.64 34.7093 192.308 34.5973 191.963 34.504C191.618 34.4107 191.263 34.364 190.899 34.364C190.395 34.364 190.008 34.448 189.737 34.616C189.476 34.7747 189.345 34.994 189.345 35.274C189.345 35.4793 189.406 35.6567 189.527 35.806C189.648 35.946 189.849 36.086 190.129 36.226C190.418 36.3567 190.801 36.5153 191.277 36.702C191.753 36.8793 192.159 37.0613 192.495 37.248C192.831 37.4347 193.088 37.6633 193.265 37.934C193.442 38.1953 193.531 38.5267 193.531 38.928ZM201.823 33.37C202.738 33.37 203.414 33.5707 203.853 33.972C204.292 34.3733 204.511 35.0127 204.511 35.89V41H203.615L203.377 39.936H203.321C202.994 40.3467 202.649 40.65 202.285 40.846C201.93 41.042 201.436 41.14 200.801 41.14C200.12 41.14 199.555 40.9627 199.107 40.608C198.659 40.244 198.435 39.6793 198.435 38.914C198.435 38.1673 198.729 37.5933 199.317 37.192C199.905 36.7813 200.81 36.5573 202.033 36.52L203.307 36.478V36.03C203.307 35.4047 203.172 34.9707 202.901 34.728C202.63 34.4853 202.248 34.364 201.753 34.364C201.361 34.364 200.988 34.4247 200.633 34.546C200.278 34.658 199.947 34.7887 199.639 34.938L199.261 34.014C199.588 33.8367 199.975 33.6873 200.423 33.566C200.871 33.4353 201.338 33.37 201.823 33.37ZM202.187 37.374C201.254 37.4113 200.605 37.5607 200.241 37.822C199.886 38.0833 199.709 38.452 199.709 38.928C199.709 39.348 199.835 39.656 200.087 39.852C200.348 40.048 200.68 40.146 201.081 40.146C201.716 40.146 202.243 39.9733 202.663 39.628C203.083 39.2733 203.293 38.732 203.293 38.004V37.332L202.187 37.374ZM213.965 33.356C214.105 33.356 214.255 33.3653 214.413 33.384C214.581 33.3933 214.726 33.412 214.847 33.44L214.693 34.574C214.572 34.546 214.437 34.5227 214.287 34.504C214.147 34.4853 214.012 34.476 213.881 34.476C213.499 34.476 213.139 34.5833 212.803 34.798C212.467 35.0033 212.197 35.2973 211.991 35.68C211.795 36.0533 211.697 36.492 211.697 36.996V41H210.465V33.496H211.473L211.613 34.868H211.669C211.912 34.4573 212.225 34.1027 212.607 33.804C212.99 33.5053 213.443 33.356 213.965 33.356ZM218.873 33.356C219.517 33.356 220.068 33.496 220.525 33.776C220.992 34.056 221.346 34.4527 221.589 34.966C221.841 35.47 221.967 36.0627 221.967 36.744V37.486H216.829C216.848 38.3353 217.062 38.984 217.473 39.432C217.893 39.8707 218.476 40.09 219.223 40.09C219.699 40.09 220.119 40.048 220.483 39.964C220.856 39.8707 221.239 39.74 221.631 39.572V40.65C221.248 40.818 220.87 40.9393 220.497 41.014C220.124 41.098 219.68 41.14 219.167 41.14C218.458 41.14 217.828 40.9953 217.277 40.706C216.736 40.4167 216.311 39.9873 216.003 39.418C215.704 38.8393 215.555 38.1347 215.555 37.304C215.555 36.4827 215.69 35.778 215.961 35.19C216.241 34.602 216.628 34.1493 217.123 33.832C217.627 33.5147 218.21 33.356 218.873 33.356ZM218.859 34.364C218.271 34.364 217.804 34.5553 217.459 34.938C217.123 35.3113 216.922 35.834 216.857 36.506H220.679C220.67 35.8713 220.52 35.358 220.231 34.966C219.942 34.5647 219.484 34.364 218.859 34.364ZM226.538 33.356C227.032 33.356 227.476 33.4493 227.868 33.636C228.269 33.8227 228.61 34.1073 228.89 34.49H228.96L229.128 33.496H230.108V41.126C230.108 42.1993 229.832 43.0067 229.282 43.548C228.74 44.0893 227.896 44.36 226.748 44.36C225.646 44.36 224.746 44.2013 224.046 43.884V42.75C224.783 43.142 225.707 43.338 226.818 43.338C227.462 43.338 227.966 43.1467 228.33 42.764C228.703 42.3907 228.89 41.8773 228.89 41.224V40.93C228.89 40.818 228.894 40.6593 228.904 40.454C228.913 40.2393 228.922 40.09 228.932 40.006H228.876C228.372 40.762 227.597 41.14 226.552 41.14C225.581 41.14 224.82 40.7993 224.27 40.118C223.728 39.4367 223.458 38.4847 223.458 37.262C223.458 36.0673 223.728 35.12 224.27 34.42C224.82 33.7107 225.576 33.356 226.538 33.356ZM226.706 34.392C226.08 34.392 225.595 34.644 225.25 35.148C224.904 35.6427 224.732 36.352 224.732 37.276C224.732 38.2 224.9 38.9093 225.236 39.404C225.581 39.8893 226.08 40.132 226.734 40.132C227.49 40.132 228.04 39.9313 228.386 39.53C228.731 39.1193 228.904 38.4613 228.904 37.556V37.262C228.904 36.2353 228.726 35.5027 228.372 35.064C228.017 34.616 227.462 34.392 226.706 34.392ZM233.121 30.682C233.307 30.682 233.471 30.7473 233.611 30.878C233.76 30.9993 233.835 31.1953 233.835 31.466C233.835 31.7273 233.76 31.9233 233.611 32.054C233.471 32.1847 233.307 32.25 233.121 32.25C232.915 32.25 232.743 32.1847 232.603 32.054C232.463 31.9233 232.393 31.7273 232.393 31.466C232.393 31.1953 232.463 30.9993 232.603 30.878C232.743 30.7473 232.915 30.682 233.121 30.682ZM233.723 33.496V41H232.491V33.496H233.723ZM240.986 38.928C240.986 39.656 240.715 40.2067 240.174 40.58C239.633 40.9533 238.905 41.14 237.99 41.14C237.467 41.14 237.015 41.098 236.632 41.014C236.259 40.93 235.927 40.8133 235.638 40.664V39.544C235.937 39.6933 236.296 39.8333 236.716 39.964C237.145 40.0853 237.579 40.146 238.018 40.146C238.643 40.146 239.096 40.048 239.376 39.852C239.656 39.6467 239.796 39.376 239.796 39.04C239.796 38.8533 239.745 38.6853 239.642 38.536C239.539 38.3867 239.353 38.2373 239.082 38.088C238.821 37.9387 238.443 37.7707 237.948 37.584C237.463 37.3973 237.047 37.2107 236.702 37.024C236.357 36.8373 236.091 36.6133 235.904 36.352C235.717 36.0907 235.624 35.7547 235.624 35.344C235.624 34.7093 235.881 34.2193 236.394 33.874C236.917 33.5287 237.598 33.356 238.438 33.356C238.895 33.356 239.32 33.4027 239.712 33.496C240.113 33.58 240.487 33.7013 240.832 33.86L240.412 34.84C240.095 34.7093 239.763 34.5973 239.418 34.504C239.073 34.4107 238.718 34.364 238.354 34.364C237.85 34.364 237.463 34.448 237.192 34.616C236.931 34.7747 236.8 34.994 236.8 35.274C236.8 35.4793 236.861 35.6567 236.982 35.806C237.103 35.946 237.304 36.086 237.584 36.226C237.873 36.3567 238.256 36.5153 238.732 36.702C239.208 36.8793 239.614 37.0613 239.95 37.248C240.286 37.4347 240.543 37.6633 240.72 37.934C240.897 38.1953 240.986 38.5267 240.986 38.928ZM245.305 40.132C245.492 40.132 245.683 40.118 245.879 40.09C246.075 40.0527 246.234 40.0153 246.355 39.978V40.916C246.225 40.9813 246.038 41.0327 245.795 41.07C245.553 41.1167 245.319 41.14 245.095 41.14C244.703 41.14 244.339 41.0747 244.003 40.944C243.677 40.804 243.411 40.566 243.205 40.23C243 39.894 242.897 39.4227 242.897 38.816V34.448H241.833V33.86L242.911 33.37L243.401 31.774H244.129V33.496H246.299V34.448H244.129V38.788C244.129 39.2453 244.237 39.586 244.451 39.81C244.675 40.0247 244.96 40.132 245.305 40.132ZM250.756 33.356C251.4 33.356 251.951 33.496 252.408 33.776C252.875 34.056 253.229 34.4527 253.472 34.966C253.724 35.47 253.85 36.0627 253.85 36.744V37.486H248.712C248.731 38.3353 248.945 38.984 249.356 39.432C249.776 39.8707 250.359 40.09 251.106 40.09C251.582 40.09 252.002 40.048 252.366 39.964C252.739 39.8707 253.122 39.74 253.514 39.572V40.65C253.131 40.818 252.753 40.9393 252.38 41.014C252.007 41.098 251.563 41.14 251.05 41.14C250.341 41.14 249.711 40.9953 249.16 40.706C248.619 40.4167 248.194 39.9873 247.886 39.418C247.587 38.8393 247.438 38.1347 247.438 37.304C247.438 36.4827 247.573 35.778 247.844 35.19C248.124 34.602 248.511 34.1493 249.006 33.832C249.51 33.5147 250.093 33.356 250.756 33.356ZM250.742 34.364C250.154 34.364 249.687 34.5553 249.342 34.938C249.006 35.3113 248.805 35.834 248.74 36.506H252.562C252.553 35.8713 252.403 35.358 252.114 34.966C251.825 34.5647 251.367 34.364 250.742 34.364ZM259.26 33.356C259.4 33.356 259.55 33.3653 259.708 33.384C259.876 33.3933 260.021 33.412 260.142 33.44L259.988 34.574C259.867 34.546 259.732 34.5227 259.582 34.504C259.442 34.4853 259.307 34.476 259.176 34.476C258.794 34.476 258.434 34.5833 258.098 34.798C257.762 35.0033 257.492 35.2973 257.286 35.68C257.09 36.0533 256.992 36.492 256.992 36.996V41H255.76V33.496H256.768L256.908 34.868H256.964C257.207 34.4573 257.52 34.1027 257.902 33.804C258.285 33.5053 258.738 33.356 259.26 33.356ZM264.168 33.356C264.812 33.356 265.363 33.496 265.82 33.776C266.287 34.056 266.641 34.4527 266.884 34.966C267.136 35.47 267.262 36.0627 267.262 36.744V37.486H262.124C262.143 38.3353 262.357 38.984 262.768 39.432C263.188 39.8707 263.771 40.09 264.518 40.09C264.994 40.09 265.414 40.048 265.778 39.964C266.151 39.8707 266.534 39.74 266.926 39.572V40.65C266.543 40.818 266.165 40.9393 265.792 41.014C265.419 41.098 264.975 41.14 264.462 41.14C263.753 41.14 263.123 40.9953 262.572 40.706C262.031 40.4167 261.606 39.9873 261.298 39.418C260.999 38.8393 260.85 38.1347 260.85 37.304C260.85 36.4827 260.985 35.778 261.256 35.19C261.536 34.602 261.923 34.1493 262.418 33.832C262.922 33.5147 263.505 33.356 264.168 33.356ZM264.154 34.364C263.566 34.364 263.099 34.5553 262.754 34.938C262.418 35.3113 262.217 35.834 262.152 36.506H265.974C265.965 35.8713 265.815 35.358 265.526 34.966C265.237 34.5647 264.779 34.364 264.154 34.364ZM271.832 41.14C270.899 41.14 270.152 40.818 269.592 40.174C269.032 39.5207 268.752 38.55 268.752 37.262C268.752 35.974 269.032 35.0033 269.592 34.35C270.162 33.6873 270.913 33.356 271.846 33.356C272.425 33.356 272.896 33.4633 273.26 33.678C273.634 33.8927 273.937 34.154 274.17 34.462H274.254C274.245 34.3407 274.226 34.1633 274.198 33.93C274.18 33.6873 274.17 33.496 274.17 33.356V30.36H275.402V41H274.408L274.226 39.992H274.17C273.946 40.3093 273.648 40.58 273.274 40.804C272.901 41.028 272.42 41.14 271.832 41.14ZM272.028 40.118C272.822 40.118 273.377 39.9033 273.694 39.474C274.021 39.0353 274.184 38.3773 274.184 37.5V37.276C274.184 36.3427 274.03 35.6287 273.722 35.134C273.414 34.63 272.845 34.378 272.014 34.378C271.352 34.378 270.852 34.644 270.516 35.176C270.19 35.6987 270.026 36.4033 270.026 37.29C270.026 38.186 270.19 38.8813 270.516 39.376C270.852 39.8707 271.356 40.118 272.028 40.118ZM283.928 40.132C284.115 40.132 284.306 40.118 284.502 40.09C284.698 40.0527 284.857 40.0153 284.978 39.978V40.916C284.848 40.9813 284.661 41.0327 284.418 41.07C284.176 41.1167 283.942 41.14 283.718 41.14C283.326 41.14 282.962 41.0747 282.626 40.944C282.3 40.804 282.034 40.566 281.828 40.23C281.623 39.894 281.52 39.4227 281.52 38.816V34.448H280.456V33.86L281.534 33.37L282.024 31.774H282.752V33.496H284.922V34.448H282.752V38.788C282.752 39.2453 282.86 39.586 283.074 39.81C283.298 40.0247 283.583 40.132 283.928 40.132ZM289.981 33.356C290.121 33.356 290.27 33.3653 290.429 33.384C290.597 33.3933 290.742 33.412 290.863 33.44L290.709 34.574C290.588 34.546 290.452 34.5227 290.303 34.504C290.163 34.4853 290.028 34.476 289.897 34.476C289.514 34.476 289.155 34.5833 288.819 34.798C288.483 35.0033 288.212 35.2973 288.007 35.68C287.811 36.0533 287.713 36.492 287.713 36.996V41H286.481V33.496H287.489L287.629 34.868H287.685C287.928 34.4573 288.24 34.1027 288.623 33.804C289.006 33.5053 289.458 33.356 289.981 33.356ZM294.833 33.37C295.747 33.37 296.424 33.5707 296.863 33.972C297.301 34.3733 297.521 35.0127 297.521 35.89V41H296.625L296.387 39.936H296.331C296.004 40.3467 295.659 40.65 295.295 40.846C294.94 41.042 294.445 41.14 293.811 41.14C293.129 41.14 292.565 40.9627 292.117 40.608C291.669 40.244 291.445 39.6793 291.445 38.914C291.445 38.1673 291.739 37.5933 292.327 37.192C292.915 36.7813 293.82 36.5573 295.043 36.52L296.317 36.478V36.03C296.317 35.4047 296.181 34.9707 295.911 34.728C295.64 34.4853 295.257 34.364 294.763 34.364C294.371 34.364 293.997 34.4247 293.643 34.546C293.288 34.658 292.957 34.7887 292.649 34.938L292.271 34.014C292.597 33.8367 292.985 33.6873 293.433 33.566C293.881 33.4353 294.347 33.37 294.833 33.37ZM295.197 37.374C294.263 37.4113 293.615 37.5607 293.251 37.822C292.896 38.0833 292.719 38.452 292.719 38.928C292.719 39.348 292.845 39.656 293.097 39.852C293.358 40.048 293.689 40.146 294.091 40.146C294.725 40.146 295.253 39.9733 295.673 39.628C296.093 39.2733 296.303 38.732 296.303 38.004V37.332L295.197 37.374ZM302.498 41.14C301.565 41.14 300.818 40.818 300.258 40.174C299.698 39.5207 299.418 38.55 299.418 37.262C299.418 35.974 299.698 35.0033 300.258 34.35C300.828 33.6873 301.579 33.356 302.512 33.356C303.091 33.356 303.562 33.4633 303.926 33.678C304.3 33.8927 304.603 34.154 304.836 34.462H304.92C304.911 34.3407 304.892 34.1633 304.864 33.93C304.846 33.6873 304.836 33.496 304.836 33.356V30.36H306.068V41H305.074L304.892 39.992H304.836C304.612 40.3093 304.314 40.58 303.94 40.804C303.567 41.028 303.086 41.14 302.498 41.14ZM302.694 40.118C303.488 40.118 304.043 39.9033 304.36 39.474C304.687 39.0353 304.85 38.3773 304.85 37.5V37.276C304.85 36.3427 304.696 35.6287 304.388 35.134C304.08 34.63 303.511 34.378 302.68 34.378C302.018 34.378 301.518 34.644 301.182 35.176C300.856 35.6987 300.692 36.4033 300.692 37.29C300.692 38.186 300.856 38.8813 301.182 39.376C301.518 39.8707 302.022 40.118 302.694 40.118ZM311.35 33.356C311.994 33.356 312.544 33.496 313.002 33.776C313.468 34.056 313.823 34.4527 314.066 34.966C314.318 35.47 314.444 36.0627 314.444 36.744V37.486H309.306C309.324 38.3353 309.539 38.984 309.95 39.432C310.37 39.8707 310.953 40.09 311.7 40.09C312.176 40.09 312.596 40.048 312.96 39.964C313.333 39.8707 313.716 39.74 314.108 39.572V40.65C313.725 40.818 313.347 40.9393 312.974 41.014C312.6 41.098 312.157 41.14 311.644 41.14C310.934 41.14 310.304 40.9953 309.754 40.706C309.212 40.4167 308.788 39.9873 308.48 39.418C308.181 38.8393 308.032 38.1347 308.032 37.304C308.032 36.4827 308.167 35.778 308.438 35.19C308.718 34.602 309.105 34.1493 309.6 33.832C310.104 33.5147 310.687 33.356 311.35 33.356ZM311.336 34.364C310.748 34.364 310.281 34.5553 309.936 34.938C309.6 35.3113 309.399 35.834 309.334 36.506H313.156C313.146 35.8713 312.997 35.358 312.708 34.966C312.418 34.5647 311.961 34.364 311.336 34.364ZM324.586 33.356C325.435 33.356 326.07 33.5753 326.49 34.014C326.91 34.4433 327.12 35.1433 327.12 36.114V41H325.902V36.17C325.902 34.9847 325.393 34.392 324.376 34.392C323.648 34.392 323.125 34.602 322.808 35.022C322.5 35.442 322.346 36.0533 322.346 36.856V41H321.128V36.17C321.128 34.9847 320.615 34.392 319.588 34.392C318.832 34.392 318.309 34.6253 318.02 35.092C317.731 35.5587 317.586 36.2307 317.586 37.108V41H316.354V33.496H317.348L317.53 34.518H317.6C317.833 34.126 318.146 33.8367 318.538 33.65C318.939 33.454 319.364 33.356 319.812 33.356C320.988 33.356 321.753 33.776 322.108 34.616H322.178C322.43 34.1867 322.771 33.8693 323.2 33.664C323.639 33.4587 324.101 33.356 324.586 33.356ZM332.28 33.37C333.195 33.37 333.871 33.5707 334.31 33.972C334.749 34.3733 334.968 35.0127 334.968 35.89V41H334.072L333.834 39.936H333.778C333.451 40.3467 333.106 40.65 332.742 40.846C332.387 41.042 331.893 41.14 331.258 41.14C330.577 41.14 330.012 40.9627 329.564 40.608C329.116 40.244 328.892 39.6793 328.892 38.914C328.892 38.1673 329.186 37.5933 329.774 37.192C330.362 36.7813 331.267 36.5573 332.49 36.52L333.764 36.478V36.03C333.764 35.4047 333.629 34.9707 333.358 34.728C333.087 34.4853 332.705 34.364 332.21 34.364C331.818 34.364 331.445 34.4247 331.09 34.546C330.735 34.658 330.404 34.7887 330.096 34.938L329.718 34.014C330.045 33.8367 330.432 33.6873 330.88 33.566C331.328 33.4353 331.795 33.37 332.28 33.37ZM332.644 37.374C331.711 37.4113 331.062 37.5607 330.698 37.822C330.343 38.0833 330.166 38.452 330.166 38.928C330.166 39.348 330.292 39.656 330.544 39.852C330.805 40.048 331.137 40.146 331.538 40.146C332.173 40.146 332.7 39.9733 333.12 39.628C333.54 39.2733 333.75 38.732 333.75 38.004V37.332L332.644 37.374ZM340.786 33.356C340.926 33.356 341.075 33.3653 341.234 33.384C341.402 33.3933 341.546 33.412 341.668 33.44L341.514 34.574C341.392 34.546 341.257 34.5227 341.108 34.504C340.968 34.4853 340.832 34.476 340.702 34.476C340.319 34.476 339.96 34.5833 339.624 34.798C339.288 35.0033 339.017 35.2973 338.812 35.68C338.616 36.0533 338.518 36.492 338.518 36.996V41H337.286V33.496H338.294L338.434 34.868H338.49C338.732 34.4573 339.045 34.1027 339.428 33.804C339.81 33.5053 340.263 33.356 340.786 33.356ZM344.287 35.918C344.287 36.0673 344.278 36.2633 344.259 36.506C344.25 36.7487 344.24 36.9587 344.231 37.136H344.287C344.343 37.0613 344.427 36.954 344.539 36.814C344.651 36.674 344.763 36.534 344.875 36.394C344.996 36.2447 345.099 36.1233 345.183 36.03L347.577 33.496H349.019L345.981 36.702L349.229 41H347.745L345.141 37.5L344.287 38.242V41H343.069V30.36H344.287V35.918ZM360.708 37.234C360.708 38.4753 360.391 39.4367 359.756 40.118C359.131 40.7993 358.281 41.14 357.208 41.14C356.545 41.14 355.953 40.9907 355.43 40.692C354.917 40.384 354.511 39.9407 354.212 39.362C353.913 38.774 353.764 38.0647 353.764 37.234C353.764 35.9927 354.077 35.036 354.702 34.364C355.327 33.692 356.177 33.356 357.25 33.356C357.931 33.356 358.529 33.51 359.042 33.818C359.565 34.1167 359.971 34.5553 360.26 35.134C360.559 35.7033 360.708 36.4033 360.708 37.234ZM355.038 37.234C355.038 38.1207 355.211 38.8253 355.556 39.348C355.911 39.8613 356.471 40.118 357.236 40.118C357.992 40.118 358.547 39.8613 358.902 39.348C359.257 38.8253 359.434 38.1207 359.434 37.234C359.434 36.3473 359.257 35.652 358.902 35.148C358.547 34.644 357.987 34.392 357.222 34.392C356.457 34.392 355.901 34.644 355.556 35.148C355.211 35.652 355.038 36.3473 355.038 37.234ZM366.119 34.448H364.229V41H362.997V34.448H361.681V33.874L362.997 33.454V33.02C362.997 32.0493 363.211 31.354 363.641 30.934C364.07 30.5047 364.667 30.29 365.433 30.29C365.731 30.29 366.002 30.318 366.245 30.374C366.497 30.4207 366.711 30.4767 366.889 30.542L366.567 31.508C366.417 31.4613 366.245 31.4147 366.049 31.368C365.853 31.3213 365.652 31.298 365.447 31.298C365.036 31.298 364.728 31.438 364.523 31.718C364.327 31.9887 364.229 32.418 364.229 33.006V33.496H366.119V34.448ZM375.562 31.97C374.489 31.97 373.644 32.3293 373.028 33.048C372.412 33.7667 372.104 34.7513 372.104 36.002C372.104 37.2433 372.389 38.228 372.958 38.956C373.537 39.6747 374.4 40.034 375.548 40.034C375.987 40.034 376.402 39.9967 376.794 39.922C377.186 39.8473 377.569 39.754 377.942 39.642V40.734C377.569 40.874 377.181 40.9767 376.78 41.042C376.388 41.1073 375.917 41.14 375.366 41.14C374.349 41.14 373.499 40.93 372.818 40.51C372.137 40.09 371.623 39.4927 371.278 38.718C370.942 37.9433 370.774 37.0333 370.774 35.988C370.774 34.98 370.956 34.0933 371.32 33.328C371.693 32.5533 372.239 31.9513 372.958 31.522C373.677 31.0833 374.549 30.864 375.576 30.864C376.631 30.864 377.55 31.06 378.334 31.452L377.83 32.516C377.522 32.376 377.177 32.25 376.794 32.138C376.421 32.026 376.01 31.97 375.562 31.97ZM381.188 41H379.956V30.36H381.188V41ZM386.463 33.356C387.107 33.356 387.658 33.496 388.115 33.776C388.582 34.056 388.936 34.4527 389.179 34.966C389.431 35.47 389.557 36.0627 389.557 36.744V37.486H384.419C384.438 38.3353 384.652 38.984 385.063 39.432C385.483 39.8707 386.066 40.09 386.813 40.09C387.289 40.09 387.709 40.048 388.073 39.964C388.446 39.8707 388.829 39.74 389.221 39.572V40.65C388.838 40.818 388.46 40.9393 388.087 41.014C387.714 41.098 387.27 41.14 386.757 41.14C386.048 41.14 385.418 40.9953 384.867 40.706C384.326 40.4167 383.901 39.9873 383.593 39.418C383.294 38.8393 383.145 38.1347 383.145 37.304C383.145 36.4827 383.28 35.778 383.551 35.19C383.831 34.602 384.218 34.1493 384.713 33.832C385.217 33.5147 385.8 33.356 386.463 33.356ZM386.449 34.364C385.861 34.364 385.394 34.5553 385.049 34.938C384.713 35.3113 384.512 35.834 384.447 36.506H388.269C388.26 35.8713 388.11 35.358 387.821 34.966C387.532 34.5647 387.074 34.364 386.449 34.364ZM394.967 33.356C395.107 33.356 395.257 33.3653 395.415 33.384C395.583 33.3933 395.728 33.412 395.849 33.44L395.695 34.574C395.574 34.546 395.439 34.5227 395.289 34.504C395.149 34.4853 395.014 34.476 394.883 34.476C394.501 34.476 394.141 34.5833 393.805 34.798C393.469 35.0033 393.199 35.2973 392.993 35.68C392.797 36.0533 392.699 36.492 392.699 36.996V41H391.467V33.496H392.475L392.615 34.868H392.671C392.914 34.4573 393.227 34.1027 393.609 33.804C393.992 33.5053 394.445 33.356 394.967 33.356ZM398.469 35.918C398.469 36.0673 398.459 36.2633 398.441 36.506C398.431 36.7487 398.422 36.9587 398.413 37.136H398.469C398.525 37.0613 398.609 36.954 398.721 36.814C398.833 36.674 398.945 36.534 399.057 36.394C399.178 36.2447 399.281 36.1233 399.365 36.03L401.759 33.496H403.201L400.163 36.702L403.411 41H401.927L399.323 37.5L398.469 38.242V41H397.251V30.36H398.469V35.918ZM409.615 38.928C409.615 39.656 409.344 40.2067 408.803 40.58C408.262 40.9533 407.534 41.14 406.619 41.14C406.096 41.14 405.644 41.098 405.261 41.014C404.888 40.93 404.556 40.8133 404.267 40.664V39.544C404.566 39.6933 404.925 39.8333 405.345 39.964C405.774 40.0853 406.208 40.146 406.647 40.146C407.272 40.146 407.725 40.048 408.005 39.852C408.285 39.6467 408.425 39.376 408.425 39.04C408.425 38.8533 408.374 38.6853 408.271 38.536C408.168 38.3867 407.982 38.2373 407.711 38.088C407.45 37.9387 407.072 37.7707 406.577 37.584C406.092 37.3973 405.676 37.2107 405.331 37.024C404.986 36.8373 404.72 36.6133 404.533 36.352C404.346 36.0907 404.253 35.7547 404.253 35.344C404.253 34.7093 404.51 34.2193 405.023 33.874C405.546 33.5287 406.227 33.356 407.067 33.356C407.524 33.356 407.949 33.4027 408.341 33.496C408.742 33.58 409.116 33.7013 409.461 33.86L409.041 34.84C408.724 34.7093 408.392 34.5973 408.047 34.504C407.702 34.4107 407.347 34.364 406.983 34.364C406.479 34.364 406.092 34.448 405.821 34.616C405.56 34.7747 405.429 34.994 405.429 35.274C405.429 35.4793 405.49 35.6567 405.611 35.806C405.732 35.946 405.933 36.086 406.213 36.226C406.502 36.3567 406.885 36.5153 407.361 36.702C407.837 36.8793 408.243 37.0613 408.579 37.248C408.915 37.4347 409.172 37.6633 409.349 37.934C409.526 38.1953 409.615 38.5267 409.615 38.928ZM410.252 33.496H411.568L413.192 37.766C413.332 38.1393 413.458 38.4987 413.57 38.844C413.682 39.18 413.766 39.502 413.822 39.81H413.878C413.934 39.5767 414.023 39.2733 414.144 38.9C414.266 38.5173 414.392 38.1347 414.522 37.752L416.048 33.496H417.378L414.144 42.036C413.883 42.7453 413.542 43.31 413.122 43.73C412.712 44.15 412.142 44.36 411.414 44.36C411.19 44.36 410.994 44.346 410.826 44.318C410.658 44.2993 410.514 44.276 410.392 44.248V43.268C410.495 43.2867 410.616 43.3053 410.756 43.324C410.906 43.3427 411.06 43.352 411.218 43.352C411.648 43.352 411.993 43.2307 412.254 42.988C412.525 42.7453 412.735 42.4233 412.884 42.022L413.276 41.028L410.252 33.496ZM419.502 39.53C419.381 40.0247 419.204 40.566 418.97 41.154C418.746 41.7513 418.522 42.302 418.298 42.806H417.388C417.519 42.274 417.65 41.6907 417.78 41.056C417.92 40.4213 418.023 39.8613 418.088 39.376H419.404L419.502 39.53ZM428.369 41H424.757V40.272L425.933 40.006V32.012L424.757 31.732V31.004H428.369V31.732L427.193 32.012V40.006L428.369 40.272V41ZM433.743 33.356C434.639 33.356 435.316 33.5753 435.773 34.014C436.231 34.4433 436.459 35.1433 436.459 36.114V41H435.241V36.198C435.241 34.994 434.681 34.392 433.561 34.392C432.731 34.392 432.157 34.6253 431.839 35.092C431.522 35.5587 431.363 36.2307 431.363 37.108V41H430.131V33.496H431.125L431.307 34.518H431.377C431.62 34.126 431.956 33.8367 432.385 33.65C432.815 33.454 433.267 33.356 433.743 33.356ZM441.796 41.14C441.133 41.14 440.54 41.0047 440.018 40.734C439.504 40.4633 439.098 40.0433 438.8 39.474C438.51 38.9047 438.366 38.1767 438.366 37.29C438.366 36.366 438.52 35.6147 438.828 35.036C439.136 34.4573 439.551 34.0327 440.074 33.762C440.606 33.4913 441.208 33.356 441.88 33.356C442.262 33.356 442.631 33.398 442.986 33.482C443.34 33.5567 443.63 33.65 443.854 33.762L443.476 34.784C443.252 34.7 442.99 34.6207 442.692 34.546C442.393 34.4713 442.113 34.434 441.852 34.434C440.377 34.434 439.64 35.3813 439.64 37.276C439.64 38.1813 439.817 38.8767 440.172 39.362C440.536 39.838 441.072 40.076 441.782 40.076C442.192 40.076 442.552 40.034 442.86 39.95C443.177 39.866 443.466 39.7633 443.728 39.642V40.734C443.476 40.8647 443.196 40.9627 442.888 41.028C442.589 41.1027 442.225 41.14 441.796 41.14ZM445.33 40.244C445.33 39.8987 445.414 39.656 445.582 39.516C445.75 39.376 445.951 39.306 446.184 39.306C446.427 39.306 446.632 39.376 446.8 39.516C446.978 39.656 447.066 39.8987 447.066 40.244C447.066 40.58 446.978 40.8227 446.8 40.972C446.632 41.1213 446.427 41.196 446.184 41.196C445.951 41.196 445.75 41.1213 445.582 40.972C445.414 40.8227 445.33 40.58 445.33 40.244Z" fill="#163A24"/>
<path d="M887.979 41H886.719V32.11H883.597V31.004H891.087V32.11H887.979V41ZM894.34 33.356C894.984 33.356 895.535 33.496 895.992 33.776C896.459 34.056 896.813 34.4527 897.056 34.966C897.308 35.47 897.434 36.0627 897.434 36.744V37.486H892.296C892.315 38.3353 892.529 38.984 892.94 39.432C893.36 39.8707 893.943 40.09 894.69 40.09C895.166 40.09 895.586 40.048 895.95 39.964C896.323 39.8707 896.706 39.74 897.098 39.572V40.65C896.715 40.818 896.337 40.9393 895.964 41.014C895.591 41.098 895.147 41.14 894.634 41.14C893.925 41.14 893.295 40.9953 892.744 40.706C892.203 40.4167 891.778 39.9873 891.47 39.418C891.171 38.8393 891.022 38.1347 891.022 37.304C891.022 36.4827 891.157 35.778 891.428 35.19C891.708 34.602 892.095 34.1493 892.59 33.832C893.094 33.5147 893.677 33.356 894.34 33.356ZM894.326 34.364C893.738 34.364 893.271 34.5553 892.926 34.938C892.59 35.3113 892.389 35.834 892.324 36.506H896.146C896.137 35.8713 895.987 35.358 895.698 34.966C895.409 34.5647 894.951 34.364 894.326 34.364ZM902.844 33.356C902.984 33.356 903.134 33.3653 903.292 33.384C903.46 33.3933 903.605 33.412 903.726 33.44L903.572 34.574C903.451 34.546 903.316 34.5227 903.166 34.504C903.026 34.4853 902.891 34.476 902.76 34.476C902.378 34.476 902.018 34.5833 901.682 34.798C901.346 35.0033 901.076 35.2973 900.87 35.68C900.674 36.0533 900.576 36.492 900.576 36.996V41H899.344V33.496H900.352L900.492 34.868H900.548C900.791 34.4573 901.104 34.1027 901.486 33.804C901.869 33.5053 902.322 33.356 902.844 33.356ZM913.36 33.356C914.209 33.356 914.844 33.5753 915.264 34.014C915.684 34.4433 915.894 35.1433 915.894 36.114V41H914.676V36.17C914.676 34.9847 914.167 34.392 913.15 34.392C912.422 34.392 911.899 34.602 911.582 35.022C911.274 35.442 911.12 36.0533 911.12 36.856V41H909.902V36.17C909.902 34.9847 909.388 34.392 908.362 34.392C907.606 34.392 907.083 34.6253 906.794 35.092C906.504 35.5587 906.36 36.2307 906.36 37.108V41H905.128V33.496H906.122L906.304 34.518H906.374C906.607 34.126 906.92 33.8367 907.312 33.65C907.713 33.454 908.138 33.356 908.586 33.356C909.762 33.356 910.527 33.776 910.882 34.616H910.952C911.204 34.1867 911.544 33.8693 911.974 33.664C912.412 33.4587 912.874 33.356 913.36 33.356ZM923.097 38.928C923.097 39.656 922.827 40.2067 922.285 40.58C921.744 40.9533 921.016 41.14 920.101 41.14C919.579 41.14 919.126 41.098 918.743 41.014C918.37 40.93 918.039 40.8133 917.749 40.664V39.544C918.048 39.6933 918.407 39.8333 918.827 39.964C919.257 40.0853 919.691 40.146 920.129 40.146C920.755 40.146 921.207 40.048 921.487 39.852C921.767 39.6467 921.907 39.376 921.907 39.04C921.907 38.8533 921.856 38.6853 921.753 38.536C921.651 38.3867 921.464 38.2373 921.193 38.088C920.932 37.9387 920.554 37.7707 920.059 37.584C919.574 37.3973 919.159 37.2107 918.813 37.024C918.468 36.8373 918.202 36.6133 918.015 36.352C917.829 36.0907 917.735 35.7547 917.735 35.344C917.735 34.7093 917.992 34.2193 918.505 33.874C919.028 33.5287 919.709 33.356 920.549 33.356C921.007 33.356 921.431 33.4027 921.823 33.496C922.225 33.58 922.598 33.7013 922.943 33.86L922.523 34.84C922.206 34.7093 921.875 34.5973 921.529 34.504C921.184 34.4107 920.829 34.364 920.465 34.364C919.961 34.364 919.574 34.448 919.303 34.616C919.042 34.7747 918.911 34.994 918.911 35.274C918.911 35.4793 918.972 35.6567 919.093 35.806C919.215 35.946 919.415 36.086 919.695 36.226C919.985 36.3567 920.367 36.5153 920.843 36.702C921.319 36.8793 921.725 37.0613 922.061 37.248C922.397 37.4347 922.654 37.6633 922.831 37.934C923.009 38.1953 923.097 38.5267 923.097 38.928ZM935.071 37.234C935.071 38.4753 934.754 39.4367 934.119 40.118C933.494 40.7993 932.645 41.14 931.571 41.14C930.909 41.14 930.316 40.9907 929.793 40.692C929.28 40.384 928.874 39.9407 928.575 39.362C928.277 38.774 928.127 38.0647 928.127 37.234C928.127 35.9927 928.44 35.036 929.065 34.364C929.691 33.692 930.54 33.356 931.613 33.356C932.295 33.356 932.892 33.51 933.405 33.818C933.928 34.1167 934.334 34.5553 934.623 35.134C934.922 35.7033 935.071 36.4033 935.071 37.234ZM929.401 37.234C929.401 38.1207 929.574 38.8253 929.919 39.348C930.274 39.8613 930.834 40.118 931.599 40.118C932.355 40.118 932.911 39.8613 933.265 39.348C933.62 38.8253 933.797 38.1207 933.797 37.234C933.797 36.3473 933.62 35.652 933.265 35.148C932.911 34.644 932.351 34.392 931.585 34.392C930.82 34.392 930.265 34.644 929.919 35.148C929.574 35.652 929.401 36.3473 929.401 37.234ZM940.482 34.448H938.592V41H937.36V34.448H936.044V33.874L937.36 33.454V33.02C937.36 32.0493 937.575 31.354 938.004 30.934C938.433 30.5047 939.031 30.29 939.796 30.29C940.095 30.29 940.365 30.318 940.608 30.374C940.86 30.4207 941.075 30.4767 941.252 30.542L940.93 31.508C940.781 31.4613 940.608 31.4147 940.412 31.368C940.216 31.3213 940.015 31.298 939.81 31.298C939.399 31.298 939.091 31.438 938.886 31.718C938.69 31.9887 938.592 32.418 938.592 33.006V33.496H940.482V34.448ZM951.311 38.326C951.311 39.2127 950.989 39.9033 950.345 40.398C949.701 40.8927 948.833 41.14 947.741 41.14C947.181 41.14 946.663 41.098 946.187 41.014C945.711 40.93 945.315 40.8133 944.997 40.664V39.46C945.333 39.6093 945.749 39.7447 946.243 39.866C946.747 39.9873 947.265 40.048 947.797 40.048C948.544 40.048 949.104 39.9033 949.477 39.614C949.86 39.3247 950.051 38.9327 950.051 38.438C950.051 38.1113 949.981 37.836 949.841 37.612C949.701 37.388 949.459 37.1827 949.113 36.996C948.777 36.8 948.306 36.5947 947.699 36.38C946.85 36.072 946.206 35.694 945.767 35.246C945.338 34.798 945.123 34.1867 945.123 33.412C945.123 32.88 945.259 32.4273 945.529 32.054C945.8 31.6713 946.173 31.3773 946.649 31.172C947.135 30.9667 947.69 30.864 948.315 30.864C948.866 30.864 949.37 30.9153 949.827 31.018C950.285 31.1207 950.7 31.256 951.073 31.424L950.681 32.502C950.336 32.3527 949.958 32.2267 949.547 32.124C949.146 32.0213 948.726 31.97 948.287 31.97C947.662 31.97 947.191 32.1053 946.873 32.376C946.556 32.6373 946.397 32.9873 946.397 33.426C946.397 33.762 946.467 34.042 946.607 34.266C946.747 34.49 946.976 34.6907 947.293 34.868C947.611 35.0453 948.04 35.2367 948.581 35.442C949.169 35.6567 949.664 35.89 950.065 36.142C950.476 36.3847 950.784 36.6787 950.989 37.024C951.204 37.3693 951.311 37.8033 951.311 38.326ZM956.055 33.356C956.699 33.356 957.249 33.496 957.707 33.776C958.173 34.056 958.528 34.4527 958.771 34.966C959.023 35.47 959.149 36.0627 959.149 36.744V37.486H954.011C954.029 38.3353 954.244 38.984 954.655 39.432C955.075 39.8707 955.658 40.09 956.405 40.09C956.881 40.09 957.301 40.048 957.665 39.964C958.038 39.8707 958.421 39.74 958.813 39.572V40.65C958.43 40.818 958.052 40.9393 957.679 41.014C957.305 41.098 956.862 41.14 956.349 41.14C955.639 41.14 955.009 40.9953 954.459 40.706C953.917 40.4167 953.493 39.9873 953.185 39.418C952.886 38.8393 952.737 38.1347 952.737 37.304C952.737 36.4827 952.872 35.778 953.143 35.19C953.423 34.602 953.81 34.1493 954.305 33.832C954.809 33.5147 955.392 33.356 956.055 33.356ZM956.041 34.364C955.453 34.364 954.986 34.5553 954.641 34.938C954.305 35.3113 954.104 35.834 954.039 36.506H957.861C957.851 35.8713 957.702 35.358 957.413 34.966C957.123 34.5647 956.666 34.364 956.041 34.364ZM964.559 33.356C964.699 33.356 964.848 33.3653 965.007 33.384C965.175 33.3933 965.32 33.412 965.441 33.44L965.287 34.574C965.166 34.546 965.03 34.5227 964.881 34.504C964.741 34.4853 964.606 34.476 964.475 34.476C964.092 34.476 963.733 34.5833 963.397 34.798C963.061 35.0033 962.79 35.2973 962.585 35.68C962.389 36.0533 962.291 36.492 962.291 36.996V41H961.059V33.496H962.067L962.207 34.868H962.263C962.506 34.4573 962.818 34.1027 963.201 33.804C963.584 33.5053 964.036 33.356 964.559 33.356ZM968.494 41L965.652 33.496H966.968L968.564 37.92C968.639 38.1253 968.718 38.354 968.802 38.606C968.886 38.858 968.961 39.1007 969.026 39.334C969.092 39.558 969.138 39.7493 969.166 39.908H969.222C969.26 39.7493 969.311 39.5533 969.376 39.32C969.451 39.0867 969.53 38.844 969.614 38.592C969.708 38.34 969.787 38.116 969.852 37.92L971.448 33.496H972.764L969.908 41H968.494ZM974.582 30.682C974.768 30.682 974.932 30.7473 975.072 30.878C975.221 30.9993 975.296 31.1953 975.296 31.466C975.296 31.7273 975.221 31.9233 975.072 32.054C974.932 32.1847 974.768 32.25 974.582 32.25C974.376 32.25 974.204 32.1847 974.064 32.054C973.924 31.9233 973.854 31.7273 973.854 31.466C973.854 31.1953 973.924 30.9993 974.064 30.878C974.204 30.7473 974.376 30.682 974.582 30.682ZM975.184 33.496V41H973.952V33.496H975.184ZM980.571 41.14C979.908 41.14 979.316 41.0047 978.793 40.734C978.28 40.4633 977.874 40.0433 977.575 39.474C977.286 38.9047 977.141 38.1767 977.141 37.29C977.141 36.366 977.295 35.6147 977.603 35.036C977.911 34.4573 978.326 34.0327 978.849 33.762C979.381 33.4913 979.983 33.356 980.655 33.356C981.038 33.356 981.406 33.398 981.761 33.482C982.116 33.5567 982.405 33.65 982.629 33.762L982.251 34.784C982.027 34.7 981.766 34.6207 981.467 34.546C981.168 34.4713 980.888 34.434 980.627 34.434C979.152 34.434 978.415 35.3813 978.415 37.276C978.415 38.1813 978.592 38.8767 978.947 39.362C979.311 39.838 979.848 40.076 980.557 40.076C980.968 40.076 981.327 40.034 981.635 39.95C981.952 39.866 982.242 39.7633 982.503 39.642V40.734C982.251 40.8647 981.971 40.9627 981.663 41.028C981.364 41.1027 981 41.14 980.571 41.14ZM987.186 33.356C987.83 33.356 988.38 33.496 988.838 33.776C989.304 34.056 989.659 34.4527 989.902 34.966C990.154 35.47 990.28 36.0627 990.28 36.744V37.486H985.142C985.16 38.3353 985.375 38.984 985.786 39.432C986.206 39.8707 986.789 40.09 987.536 40.09C988.012 40.09 988.432 40.048 988.796 39.964C989.169 39.8707 989.552 39.74 989.944 39.572V40.65C989.561 40.818 989.183 40.9393 988.81 41.014C988.436 41.098 987.993 41.14 987.48 41.14C986.77 41.14 986.14 40.9953 985.59 40.706C985.048 40.4167 984.624 39.9873 984.316 39.418C984.017 38.8393 983.868 38.1347 983.868 37.304C983.868 36.4827 984.003 35.778 984.274 35.19C984.554 34.602 984.941 34.1493 985.436 33.832C985.94 33.5147 986.523 33.356 987.186 33.356ZM987.172 34.364C986.584 34.364 986.117 34.5553 985.772 34.938C985.436 35.3113 985.235 35.834 985.17 36.506H988.992C988.982 35.8713 988.833 35.358 988.544 34.966C988.254 34.5647 987.797 34.364 987.172 34.364Z" fill="#198C36"/>
<path d="M1063.15 31.97C1062.08 31.97 1061.23 32.3293 1060.62 33.048C1060 33.7667 1059.69 34.7513 1059.69 36.002C1059.69 37.2433 1059.98 38.228 1060.55 38.956C1061.13 39.6747 1061.99 40.034 1063.14 40.034C1063.58 40.034 1063.99 39.9967 1064.38 39.922C1064.78 39.8473 1065.16 39.754 1065.53 39.642V40.734C1065.16 40.874 1064.77 40.9767 1064.37 41.042C1063.98 41.1073 1063.51 41.14 1062.96 41.14C1061.94 41.14 1061.09 40.93 1060.41 40.51C1059.73 40.09 1059.21 39.4927 1058.87 38.718C1058.53 37.9433 1058.36 37.0333 1058.36 35.988C1058.36 34.98 1058.55 34.0933 1058.91 33.328C1059.28 32.5533 1059.83 31.9513 1060.55 31.522C1061.27 31.0833 1062.14 30.864 1063.17 30.864C1064.22 30.864 1065.14 31.06 1065.92 31.452L1065.42 32.516C1065.11 32.376 1064.77 32.25 1064.38 32.138C1064.01 32.026 1063.6 31.97 1063.15 31.97ZM1070.39 33.37C1071.3 33.37 1071.98 33.5707 1072.42 33.972C1072.86 34.3733 1073.08 35.0127 1073.08 35.89V41H1072.18L1071.94 39.936H1071.89C1071.56 40.3467 1071.21 40.65 1070.85 40.846C1070.49 41.042 1070 41.14 1069.37 41.14C1068.68 41.14 1068.12 40.9627 1067.67 40.608C1067.22 40.244 1067 39.6793 1067 38.914C1067 38.1673 1067.29 37.5933 1067.88 37.192C1068.47 36.7813 1069.37 36.5573 1070.6 36.52L1071.87 36.478V36.03C1071.87 35.4047 1071.74 34.9707 1071.47 34.728C1071.19 34.4853 1070.81 34.364 1070.32 34.364C1069.93 34.364 1069.55 34.4247 1069.2 34.546C1068.84 34.658 1068.51 34.7887 1068.2 34.938L1067.83 34.014C1068.15 33.8367 1068.54 33.6873 1068.99 33.566C1069.44 33.4353 1069.9 33.37 1070.39 33.37ZM1070.75 37.374C1069.82 37.4113 1069.17 37.5607 1068.81 37.822C1068.45 38.0833 1068.27 38.452 1068.27 38.928C1068.27 39.348 1068.4 39.656 1068.65 39.852C1068.91 40.048 1069.24 40.146 1069.65 40.146C1070.28 40.146 1070.81 39.9733 1071.23 39.628C1071.65 39.2733 1071.86 38.732 1071.86 38.004V37.332L1070.75 37.374ZM1078.89 33.356C1079.03 33.356 1079.18 33.3653 1079.34 33.384C1079.51 33.3933 1079.65 33.412 1079.78 33.44L1079.62 34.574C1079.5 34.546 1079.36 34.5227 1079.22 34.504C1079.08 34.4853 1078.94 34.476 1078.81 34.476C1078.43 34.476 1078.07 34.5833 1077.73 34.798C1077.4 35.0033 1077.12 35.2973 1076.92 35.68C1076.72 36.0533 1076.63 36.492 1076.63 36.996V41H1075.39V33.496H1076.4L1076.54 34.868H1076.6C1076.84 34.4573 1077.15 34.1027 1077.54 33.804C1077.92 33.5053 1078.37 33.356 1078.89 33.356ZM1083.8 33.356C1084.44 33.356 1085 33.496 1085.45 33.776C1085.92 34.056 1086.27 34.4527 1086.52 34.966C1086.77 35.47 1086.89 36.0627 1086.89 36.744V37.486H1081.76C1081.78 38.3353 1081.99 38.984 1082.4 39.432C1082.82 39.8707 1083.4 40.09 1084.15 40.09C1084.63 40.09 1085.05 40.048 1085.41 39.964C1085.78 39.8707 1086.17 39.74 1086.56 39.572V40.65C1086.18 40.818 1085.8 40.9393 1085.42 41.014C1085.05 41.098 1084.61 41.14 1084.09 41.14C1083.39 41.14 1082.76 40.9953 1082.2 40.706C1081.66 40.4167 1081.24 39.9873 1080.93 39.418C1080.63 38.8393 1080.48 38.1347 1080.48 37.304C1080.48 36.4827 1080.62 35.778 1080.89 35.19C1081.17 34.602 1081.56 34.1493 1082.05 33.832C1082.55 33.5147 1083.14 33.356 1083.8 33.356ZM1083.79 34.364C1083.2 34.364 1082.73 34.5553 1082.39 34.938C1082.05 35.3113 1081.85 35.834 1081.78 36.506H1085.61C1085.6 35.8713 1085.45 35.358 1085.16 34.966C1084.87 34.5647 1084.41 34.364 1083.79 34.364ZM1091.7 33.356C1092.35 33.356 1092.9 33.496 1093.36 33.776C1093.82 34.056 1094.18 34.4527 1094.42 34.966C1094.67 35.47 1094.8 36.0627 1094.8 36.744V37.486H1089.66C1089.68 38.3353 1089.89 38.984 1090.3 39.432C1090.72 39.8707 1091.31 40.09 1092.05 40.09C1092.53 40.09 1092.95 40.048 1093.31 39.964C1093.69 39.8707 1094.07 39.74 1094.46 39.572V40.65C1094.08 40.818 1093.7 40.9393 1093.33 41.014C1092.95 41.098 1092.51 41.14 1092 41.14C1091.29 41.14 1090.66 40.9953 1090.11 40.706C1089.57 40.4167 1089.14 39.9873 1088.83 39.418C1088.53 38.8393 1088.39 38.1347 1088.39 37.304C1088.39 36.4827 1088.52 35.778 1088.79 35.19C1089.07 34.602 1089.46 34.1493 1089.95 33.832C1090.46 33.5147 1091.04 33.356 1091.7 33.356ZM1091.69 34.364C1091.1 34.364 1090.63 34.5553 1090.29 34.938C1089.95 35.3113 1089.75 35.834 1089.69 36.506H1093.51C1093.5 35.8713 1093.35 35.358 1093.06 34.966C1092.77 34.5647 1092.31 34.364 1091.69 34.364ZM1100.21 33.356C1100.35 33.356 1100.5 33.3653 1100.66 33.384C1100.82 33.3933 1100.97 33.412 1101.09 33.44L1100.94 34.574C1100.81 34.546 1100.68 34.5227 1100.53 34.504C1100.39 34.4853 1100.25 34.476 1100.12 34.476C1099.74 34.476 1099.38 34.5833 1099.05 34.798C1098.71 35.0033 1098.44 35.2973 1098.23 35.68C1098.04 36.0533 1097.94 36.492 1097.94 36.996V41H1096.71V33.496H1097.72L1097.86 34.868H1097.91C1098.15 34.4573 1098.47 34.1027 1098.85 33.804C1099.23 33.5053 1099.68 33.356 1100.21 33.356ZM1107.38 38.928C1107.38 39.656 1107.11 40.2067 1106.56 40.58C1106.02 40.9533 1105.3 41.14 1104.38 41.14C1103.86 41.14 1103.41 41.098 1103.02 41.014C1102.65 40.93 1102.32 40.8133 1102.03 40.664V39.544C1102.33 39.6933 1102.69 39.8333 1103.11 39.964C1103.54 40.0853 1103.97 40.146 1104.41 40.146C1105.03 40.146 1105.49 40.048 1105.77 39.852C1106.05 39.6467 1106.19 39.376 1106.19 39.04C1106.19 38.8533 1106.14 38.6853 1106.03 38.536C1105.93 38.3867 1105.74 38.2373 1105.47 38.088C1105.21 37.9387 1104.83 37.7707 1104.34 37.584C1103.85 37.3973 1103.44 37.2107 1103.09 37.024C1102.75 36.8373 1102.48 36.6133 1102.29 36.352C1102.11 36.0907 1102.01 35.7547 1102.01 35.344C1102.01 34.7093 1102.27 34.2193 1102.78 33.874C1103.31 33.5287 1103.99 33.356 1104.83 33.356C1105.29 33.356 1105.71 33.4027 1106.1 33.496C1106.5 33.58 1106.88 33.7013 1107.22 33.86L1106.8 34.84C1106.49 34.7093 1106.15 34.5973 1105.81 34.504C1105.46 34.4107 1105.11 34.364 1104.74 34.364C1104.24 34.364 1103.85 34.448 1103.58 34.616C1103.32 34.7747 1103.19 34.994 1103.19 35.274C1103.19 35.4793 1103.25 35.6567 1103.37 35.806C1103.49 35.946 1103.69 36.086 1103.97 36.226C1104.26 36.3567 1104.65 36.5153 1105.12 36.702C1105.6 36.8793 1106 37.0613 1106.34 37.248C1106.68 37.4347 1106.93 37.6633 1107.11 37.934C1107.29 38.1953 1107.38 38.5267 1107.38 38.928Z" fill="#198C36"/>
<path d="M781.643 31.004C782.949 31.004 783.901 31.2607 784.499 31.774C785.096 32.2873 785.395 33.0107 785.395 33.944C785.395 34.4947 785.269 35.0127 785.017 35.498C784.774 35.974 784.359 36.3613 783.771 36.66C783.192 36.9587 782.403 37.108 781.405 37.108H780.257V41H778.997V31.004H781.643ZM781.531 32.082H780.257V36.03H781.265C782.217 36.03 782.926 35.876 783.393 35.568C783.859 35.26 784.093 34.7373 784.093 34C784.093 33.356 783.887 32.8753 783.477 32.558C783.066 32.2407 782.417 32.082 781.531 32.082ZM790.805 33.356C790.945 33.356 791.095 33.3653 791.253 33.384C791.421 33.3933 791.566 33.412 791.687 33.44L791.533 34.574C791.412 34.546 791.277 34.5227 791.127 34.504C790.987 34.4853 790.852 34.476 790.721 34.476C790.339 34.476 789.979 34.5833 789.643 34.798C789.307 35.0033 789.037 35.2973 788.831 35.68C788.635 36.0533 788.537 36.492 788.537 36.996V41H787.305V33.496H788.313L788.453 34.868H788.509C788.752 34.4573 789.065 34.1027 789.447 33.804C789.83 33.5053 790.283 33.356 790.805 33.356ZM793.718 30.682C793.905 30.682 794.068 30.7473 794.208 30.878C794.358 30.9993 794.432 31.1953 794.432 31.466C794.432 31.7273 794.358 31.9233 794.208 32.054C794.068 32.1847 793.905 32.25 793.718 32.25C793.513 32.25 793.34 32.1847 793.2 32.054C793.06 31.9233 792.99 31.7273 792.99 31.466C792.99 31.1953 793.06 30.9993 793.2 30.878C793.34 30.7473 793.513 30.682 793.718 30.682ZM794.32 33.496V41H793.088V33.496H794.32ZM798.35 41L795.508 33.496H796.824L798.42 37.92C798.494 38.1253 798.574 38.354 798.658 38.606C798.742 38.858 798.816 39.1007 798.882 39.334C798.947 39.558 798.994 39.7493 799.022 39.908H799.078C799.115 39.7493 799.166 39.5533 799.232 39.32C799.306 39.0867 799.386 38.844 799.47 38.592C799.563 38.34 799.642 38.116 799.708 37.92L801.304 33.496H802.62L799.764 41H798.35ZM806.649 33.37C807.564 33.37 808.241 33.5707 808.679 33.972C809.118 34.3733 809.337 35.0127 809.337 35.89V41H808.441L808.203 39.936H808.147C807.821 40.3467 807.475 40.65 807.111 40.846C806.757 41.042 806.262 41.14 805.627 41.14C804.946 41.14 804.381 40.9627 803.933 40.608C803.485 40.244 803.261 39.6793 803.261 38.914C803.261 38.1673 803.555 37.5933 804.143 37.192C804.731 36.7813 805.637 36.5573 806.859 36.52L808.133 36.478V36.03C808.133 35.4047 807.998 34.9707 807.727 34.728C807.457 34.4853 807.074 34.364 806.579 34.364C806.187 34.364 805.814 34.4247 805.459 34.546C805.105 34.658 804.773 34.7887 804.465 34.938L804.087 34.014C804.414 33.8367 804.801 33.6873 805.249 33.566C805.697 33.4353 806.164 33.37 806.649 33.37ZM807.013 37.374C806.08 37.4113 805.431 37.5607 805.067 37.822C804.713 38.0833 804.535 38.452 804.535 38.928C804.535 39.348 804.661 39.656 804.913 39.852C805.175 40.048 805.506 40.146 805.907 40.146C806.542 40.146 807.069 39.9733 807.489 39.628C807.909 39.2733 808.119 38.732 808.119 38.004V37.332L807.013 37.374ZM814.665 41.14C814.002 41.14 813.41 41.0047 812.887 40.734C812.374 40.4633 811.968 40.0433 811.669 39.474C811.38 38.9047 811.235 38.1767 811.235 37.29C811.235 36.366 811.389 35.6147 811.697 35.036C812.005 34.4573 812.42 34.0327 812.943 33.762C813.475 33.4913 814.077 33.356 814.749 33.356C815.132 33.356 815.5 33.398 815.855 33.482C816.21 33.5567 816.499 33.65 816.723 33.762L816.345 34.784C816.121 34.7 815.86 34.6207 815.561 34.546C815.262 34.4713 814.982 34.434 814.721 34.434C813.246 34.434 812.509 35.3813 812.509 37.276C812.509 38.1813 812.686 38.8767 813.041 39.362C813.405 39.838 813.942 40.076 814.651 40.076C815.062 40.076 815.421 40.034 815.729 39.95C816.046 39.866 816.336 39.7633 816.597 39.642V40.734C816.345 40.8647 816.065 40.9627 815.757 41.028C815.458 41.1027 815.094 41.14 814.665 41.14ZM817.205 33.496H818.521L820.145 37.766C820.285 38.1393 820.411 38.4987 820.523 38.844C820.635 39.18 820.719 39.502 820.775 39.81H820.831C820.887 39.5767 820.976 39.2733 821.097 38.9C821.219 38.5173 821.345 38.1347 821.475 37.752L823.001 33.496H824.331L821.097 42.036C820.836 42.7453 820.495 43.31 820.075 43.73C819.665 44.15 819.095 44.36 818.367 44.36C818.143 44.36 817.947 44.346 817.779 44.318C817.611 44.2993 817.467 44.276 817.345 44.248V43.268C817.448 43.2867 817.569 43.3053 817.709 43.324C817.859 43.3427 818.013 43.352 818.171 43.352C818.601 43.352 818.946 43.2307 819.207 42.988C819.478 42.7453 819.688 42.4233 819.837 42.022L820.229 41.028L817.205 33.496ZM831.969 31.004C833.276 31.004 834.228 31.2607 834.825 31.774C835.422 32.2873 835.721 33.0107 835.721 33.944C835.721 34.4947 835.595 35.0127 835.343 35.498C835.1 35.974 834.685 36.3613 834.097 36.66C833.518 36.9587 832.73 37.108 831.731 37.108H830.583V41H829.323V31.004H831.969ZM831.857 32.082H830.583V36.03H831.591C832.543 36.03 833.252 35.876 833.719 35.568C834.186 35.26 834.419 34.7373 834.419 34C834.419 33.356 834.214 32.8753 833.803 32.558C833.392 32.2407 832.744 32.082 831.857 32.082ZM844.155 37.234C844.155 38.4753 843.838 39.4367 843.203 40.118C842.578 40.7993 841.729 41.14 840.655 41.14C839.993 41.14 839.4 40.9907 838.877 40.692C838.364 40.384 837.958 39.9407 837.659 39.362C837.361 38.774 837.211 38.0647 837.211 37.234C837.211 35.9927 837.524 35.036 838.149 34.364C838.775 33.692 839.624 33.356 840.697 33.356C841.379 33.356 841.976 33.51 842.489 33.818C843.012 34.1167 843.418 34.5553 843.707 35.134C844.006 35.7033 844.155 36.4033 844.155 37.234ZM838.485 37.234C838.485 38.1207 838.658 38.8253 839.003 39.348C839.358 39.8613 839.918 40.118 840.683 40.118C841.439 40.118 841.995 39.8613 842.349 39.348C842.704 38.8253 842.881 38.1207 842.881 37.234C842.881 36.3473 842.704 35.652 842.349 35.148C841.995 34.644 841.435 34.392 840.669 34.392C839.904 34.392 839.349 34.644 839.003 35.148C838.658 35.652 838.485 36.3473 838.485 37.234ZM847.34 41H846.108V30.36H847.34V41ZM850.347 30.682C850.534 30.682 850.697 30.7473 850.837 30.878C850.987 30.9993 851.061 31.1953 851.061 31.466C851.061 31.7273 850.987 31.9233 850.837 32.054C850.697 32.1847 850.534 32.25 850.347 32.25C850.142 32.25 849.969 32.1847 849.829 32.054C849.689 31.9233 849.619 31.7273 849.619 31.466C849.619 31.1953 849.689 30.9993 849.829 30.878C849.969 30.7473 850.142 30.682 850.347 30.682ZM850.949 33.496V41H849.717V33.496H850.949ZM856.337 41.14C855.674 41.14 855.081 41.0047 854.559 40.734C854.045 40.4633 853.639 40.0433 853.341 39.474C853.051 38.9047 852.907 38.1767 852.907 37.29C852.907 36.366 853.061 35.6147 853.369 35.036C853.677 34.4573 854.092 34.0327 854.615 33.762C855.147 33.4913 855.749 33.356 856.421 33.356C856.803 33.356 857.172 33.398 857.527 33.482C857.881 33.5567 858.171 33.65 858.395 33.762L858.017 34.784C857.793 34.7 857.531 34.6207 857.233 34.546C856.934 34.4713 856.654 34.434 856.393 34.434C854.918 34.434 854.181 35.3813 854.181 37.276C854.181 38.1813 854.358 38.8767 854.713 39.362C855.077 39.838 855.613 40.076 856.323 40.076C856.733 40.076 857.093 40.034 857.401 39.95C857.718 39.866 858.007 39.7633 858.269 39.642V40.734C858.017 40.8647 857.737 40.9627 857.429 41.028C857.13 41.1027 856.766 41.14 856.337 41.14ZM858.877 33.496H860.193L861.817 37.766C861.957 38.1393 862.083 38.4987 862.195 38.844C862.307 39.18 862.391 39.502 862.447 39.81H862.503C862.559 39.5767 862.648 39.2733 862.769 38.9C862.891 38.5173 863.017 38.1347 863.147 37.752L864.673 33.496H866.003L862.769 42.036C862.508 42.7453 862.167 43.31 861.747 43.73C861.337 44.15 860.767 44.36 860.039 44.36C859.815 44.36 859.619 44.346 859.451 44.318C859.283 44.2993 859.139 44.276 859.017 44.248V43.268C859.12 43.2867 859.241 43.3053 859.381 43.324C859.531 43.3427 859.685 43.352 859.843 43.352C860.273 43.352 860.618 43.2307 860.879 42.988C861.15 42.7453 861.36 42.4233 861.509 42.022L861.901 41.028L858.877 33.496Z" fill="#198C36"/>
<path d="M1127.74 31.004C1129.05 31.004 1130 31.2607 1130.6 31.774C1131.2 32.2873 1131.5 33.0107 1131.5 33.944C1131.5 34.4947 1131.37 35.0127 1131.12 35.498C1130.88 35.974 1130.46 36.3613 1129.87 36.66C1129.29 36.9587 1128.5 37.108 1127.51 37.108H1126.36V41H1125.1V31.004H1127.74ZM1127.63 32.082H1126.36V36.03H1127.37C1128.32 36.03 1129.03 35.876 1129.49 35.568C1129.96 35.26 1130.19 34.7373 1130.19 34C1130.19 33.356 1129.99 32.8753 1129.58 32.558C1129.17 32.2407 1128.52 32.082 1127.63 32.082ZM1136.91 33.356C1137.05 33.356 1137.2 33.3653 1137.35 33.384C1137.52 33.3933 1137.67 33.412 1137.79 33.44L1137.63 34.574C1137.51 34.546 1137.38 34.5227 1137.23 34.504C1137.09 34.4853 1136.95 34.476 1136.82 34.476C1136.44 34.476 1136.08 34.5833 1135.74 34.798C1135.41 35.0033 1135.14 35.2973 1134.93 35.68C1134.74 36.0533 1134.64 36.492 1134.64 36.996V41H1133.41V33.496H1134.41L1134.55 34.868H1134.61C1134.85 34.4573 1135.17 34.1027 1135.55 33.804C1135.93 33.5053 1136.38 33.356 1136.91 33.356ZM1141.81 33.356C1142.46 33.356 1143.01 33.496 1143.47 33.776C1143.93 34.056 1144.29 34.4527 1144.53 34.966C1144.78 35.47 1144.91 36.0627 1144.91 36.744V37.486H1139.77C1139.79 38.3353 1140 38.984 1140.41 39.432C1140.83 39.8707 1141.42 40.09 1142.16 40.09C1142.64 40.09 1143.06 40.048 1143.42 39.964C1143.8 39.8707 1144.18 39.74 1144.57 39.572V40.65C1144.19 40.818 1143.81 40.9393 1143.44 41.014C1143.07 41.098 1142.62 41.14 1142.11 41.14C1141.4 41.14 1140.77 40.9953 1140.22 40.706C1139.68 40.4167 1139.25 39.9873 1138.94 39.418C1138.65 38.8393 1138.5 38.1347 1138.5 37.304C1138.5 36.4827 1138.63 35.778 1138.9 35.19C1139.18 34.602 1139.57 34.1493 1140.06 33.832C1140.57 33.5147 1141.15 33.356 1141.81 33.356ZM1141.8 34.364C1141.21 34.364 1140.75 34.5553 1140.4 34.938C1140.06 35.3113 1139.86 35.834 1139.8 36.506H1143.62C1143.61 35.8713 1143.46 35.358 1143.17 34.966C1142.88 34.5647 1142.43 34.364 1141.8 34.364ZM1151.7 38.928C1151.7 39.656 1151.43 40.2067 1150.89 40.58C1150.35 40.9533 1149.62 41.14 1148.71 41.14C1148.19 41.14 1147.73 41.098 1147.35 41.014C1146.98 40.93 1146.65 40.8133 1146.36 40.664V39.544C1146.66 39.6933 1147.01 39.8333 1147.43 39.964C1147.86 40.0853 1148.3 40.146 1148.74 40.146C1149.36 40.146 1149.81 40.048 1150.09 39.852C1150.37 39.6467 1150.51 39.376 1150.51 39.04C1150.51 38.8533 1150.46 38.6853 1150.36 38.536C1150.26 38.3867 1150.07 38.2373 1149.8 38.088C1149.54 37.9387 1149.16 37.7707 1148.67 37.584C1148.18 37.3973 1147.77 37.2107 1147.42 37.024C1147.08 36.8373 1146.81 36.6133 1146.62 36.352C1146.44 36.0907 1146.34 35.7547 1146.34 35.344C1146.34 34.7093 1146.6 34.2193 1147.11 33.874C1147.64 33.5287 1148.32 33.356 1149.16 33.356C1149.61 33.356 1150.04 33.4027 1150.43 33.496C1150.83 33.58 1151.21 33.7013 1151.55 33.86L1151.13 34.84C1150.81 34.7093 1150.48 34.5973 1150.14 34.504C1149.79 34.4107 1149.44 34.364 1149.07 34.364C1148.57 34.364 1148.18 34.448 1147.91 34.616C1147.65 34.7747 1147.52 34.994 1147.52 35.274C1147.52 35.4793 1147.58 35.6567 1147.7 35.806C1147.82 35.946 1148.02 36.086 1148.3 36.226C1148.59 36.3567 1148.97 36.5153 1149.45 36.702C1149.93 36.8793 1150.33 37.0613 1150.67 37.248C1151 37.4347 1151.26 37.6633 1151.44 37.934C1151.62 38.1953 1151.7 38.5267 1151.7 38.928ZM1158.4 38.928C1158.4 39.656 1158.13 40.2067 1157.59 40.58C1157.05 40.9533 1156.32 41.14 1155.41 41.14C1154.89 41.14 1154.43 41.098 1154.05 41.014C1153.68 40.93 1153.35 40.8133 1153.06 40.664V39.544C1153.35 39.6933 1153.71 39.8333 1154.13 39.964C1154.56 40.0853 1155 40.146 1155.44 40.146C1156.06 40.146 1156.51 40.048 1156.79 39.852C1157.07 39.6467 1157.21 39.376 1157.21 39.04C1157.21 38.8533 1157.16 38.6853 1157.06 38.536C1156.96 38.3867 1156.77 38.2373 1156.5 38.088C1156.24 37.9387 1155.86 37.7707 1155.37 37.584C1154.88 37.3973 1154.47 37.2107 1154.12 37.024C1153.77 36.8373 1153.51 36.6133 1153.32 36.352C1153.14 36.0907 1153.04 35.7547 1153.04 35.344C1153.04 34.7093 1153.3 34.2193 1153.81 33.874C1154.33 33.5287 1155.02 33.356 1155.86 33.356C1156.31 33.356 1156.74 33.4027 1157.13 33.496C1157.53 33.58 1157.9 33.7013 1158.25 33.86L1157.83 34.84C1157.51 34.7093 1157.18 34.5973 1156.84 34.504C1156.49 34.4107 1156.14 34.364 1155.77 34.364C1155.27 34.364 1154.88 34.448 1154.61 34.616C1154.35 34.7747 1154.22 34.994 1154.22 35.274C1154.22 35.4793 1154.28 35.6567 1154.4 35.806C1154.52 35.946 1154.72 36.086 1155 36.226C1155.29 36.3567 1155.67 36.5153 1156.15 36.702C1156.63 36.8793 1157.03 37.0613 1157.37 37.248C1157.7 37.4347 1157.96 37.6633 1158.14 37.934C1158.32 38.1953 1158.4 38.5267 1158.4 38.928ZM1171.33 41H1169.85L1166.3 36.226L1165.28 37.122V41H1164.02V31.004H1165.28V35.932C1165.56 35.6147 1165.85 35.2973 1166.14 34.98C1166.43 34.6627 1166.71 34.3453 1167 34.028L1169.71 31.004H1171.18L1167.21 35.358L1171.33 41ZM1173.15 30.682C1173.34 30.682 1173.5 30.7473 1173.64 30.878C1173.79 30.9993 1173.87 31.1953 1173.87 31.466C1173.87 31.7273 1173.79 31.9233 1173.64 32.054C1173.5 32.1847 1173.34 32.25 1173.15 32.25C1172.95 32.25 1172.77 32.1847 1172.63 32.054C1172.49 31.9233 1172.42 31.7273 1172.42 31.466C1172.42 31.1953 1172.49 30.9993 1172.63 30.878C1172.77 30.7473 1172.95 30.682 1173.15 30.682ZM1173.75 33.496V41H1172.52V33.496H1173.75ZM1178.64 40.132C1178.82 40.132 1179.02 40.118 1179.21 40.09C1179.41 40.0527 1179.57 40.0153 1179.69 39.978V40.916C1179.56 40.9813 1179.37 41.0327 1179.13 41.07C1178.88 41.1167 1178.65 41.14 1178.43 41.14C1178.04 41.14 1177.67 41.0747 1177.34 40.944C1177.01 40.804 1176.74 40.566 1176.54 40.23C1176.33 39.894 1176.23 39.4227 1176.23 38.816V34.448H1175.17V33.86L1176.24 33.37L1176.73 31.774H1177.46V33.496H1179.63V34.448H1177.46V38.788C1177.46 39.2453 1177.57 39.586 1177.78 39.81C1178.01 40.0247 1178.29 40.132 1178.64 40.132Z" fill="#198C36"/>
<path d="M1012.38 35.099H1015.59V39.649C1015.09 39.8137 1014.58 39.935 1014.07 40.013C1013.56 40.091 1012.98 40.13 1012.33 40.13C1011.36 40.13 1010.55 39.9393 1009.9 39.558C1009.24 39.168 1008.73 38.6177 1008.39 37.907C1008.05 37.1877 1007.88 36.3383 1007.88 35.359C1007.88 34.3883 1008.07 33.5477 1008.45 32.837C1008.83 32.1263 1009.38 31.576 1010.09 31.186C1010.81 30.7873 1011.68 30.588 1012.69 30.588C1013.21 30.588 1013.7 30.6357 1014.16 30.731C1014.63 30.8263 1015.06 30.9607 1015.46 31.134L1015.02 32.148C1014.69 32.0007 1014.32 31.875 1013.9 31.771C1013.49 31.667 1013.07 31.615 1012.63 31.615C1011.52 31.615 1010.65 31.9487 1010.03 32.616C1009.41 33.2833 1009.1 34.1977 1009.1 35.359C1009.1 36.0957 1009.22 36.75 1009.45 37.322C1009.7 37.8853 1010.07 38.3273 1010.58 38.648C1011.1 38.96 1011.77 39.116 1012.6 39.116C1013.01 39.116 1013.35 39.0943 1013.64 39.051C1013.93 39.0077 1014.19 38.9557 1014.42 38.895V36.139H1012.38V35.099ZM1025.24 35.268C1025.24 36.8367 1024.81 38.0197 1023.96 38.817C1023.11 39.6057 1021.92 40 1020.39 40H1017.81V30.718H1020.67C1021.6 30.718 1022.41 30.8913 1023.1 31.238C1023.78 31.5847 1024.31 32.096 1024.68 32.772C1025.06 33.4393 1025.24 34.2713 1025.24 35.268ZM1024.01 35.307C1024.01 34.0677 1023.7 33.162 1023.08 32.59C1022.48 32.0093 1021.62 31.719 1020.5 31.719H1018.98V38.999H1020.24C1022.75 38.999 1024.01 37.7683 1024.01 35.307ZM1029.76 30.718C1030.97 30.718 1031.86 30.9563 1032.41 31.433C1032.97 31.9097 1033.24 32.5813 1033.24 33.448C1033.24 33.9593 1033.13 34.4403 1032.89 34.891C1032.67 35.333 1032.28 35.6927 1031.74 35.97C1031.2 36.2473 1030.47 36.386 1029.54 36.386H1028.47V40H1027.3V30.718H1029.76ZM1029.66 31.719H1028.47V35.385H1029.41C1030.29 35.385 1030.95 35.242 1031.38 34.956C1031.82 34.67 1032.03 34.1847 1032.03 33.5C1032.03 32.902 1031.84 32.4557 1031.46 32.161C1031.08 31.8663 1030.48 31.719 1029.66 31.719ZM1037.74 30.718C1038.89 30.718 1039.74 30.939 1040.28 31.381C1040.84 31.8143 1041.12 32.473 1041.12 33.357C1041.12 33.851 1041.02 34.2627 1040.84 34.592C1040.66 34.9213 1040.43 35.1857 1040.14 35.385C1039.86 35.5757 1039.57 35.7273 1039.26 35.84L1041.8 40H1040.44L1038.19 36.165H1036.34V40H1035.17V30.718H1037.74ZM1037.67 31.732H1036.34V35.177H1037.74C1038.49 35.177 1039.04 35.0297 1039.39 34.735C1039.73 34.4317 1039.91 33.9897 1039.91 33.409C1039.91 32.8023 1039.72 32.3733 1039.36 32.122C1039 31.862 1038.43 31.732 1037.67 31.732Z" fill="#198C36"/>
</svg>
